<?xml version="1.0" encoding="utf-8"?>
<!-- Generator: Adobe Illustrator 25.2.3, SVG Export Plug-In . SVG Version: 6.00 Build 0)  -->
<svg version="1.1" id="Calque_1" xmlns="http://www.w3.org/2000/svg" xmlns:xlink="http://www.w3.org/1999/xlink" x="0px" y="0px"
	 viewBox="0 0 15 25" style="enable-background:new 0 0 15 25;" xml:space="preserve">
<path d="M15,9.4C15,9.4,15,9.4,15,9.4V9.2c0,0,0-0.1,0-0.1c0-0.1-0.1-0.3-0.1-0.4c-0.2-0.7-1-1.3-1.8-1.3c-0.4,0-0.8,0.1-1.1,0.3
	c0-0.1,0-0.2-0.1-0.3c-0.2-0.7-1-1.3-1.8-1.3c-0.4,0-0.8,0.1-1,0.3V1.9C9.2,1,8.5,0.2,7.7,0C7.1-0.1,6.6,0,6.1,0.4
	C5.7,0.8,5.4,1.3,5.4,1.9V7C5.3,7,5.3,6.9,5.1,6.8C4.5,6.5,3.9,6.6,3.4,7C2.8,7.4,2.5,8,2.5,8.8v2.7l-0.6,0.4c0,0,0,0,0,0
	C0.6,12.5,0,13.5,0,15.2v1.2c0,3.4,2.2,5,2.9,5.5v1.2c0,1,0.8,1.9,1.9,1.9h7.3c1,0,1.7-1,1.7-1.9v-1.3c1.2-1.7,1.2-2,1.2-5.4v-4.3
	V12v-0.1v0V9.4z M9.2,8.1c0-0.6,0.5-1,1-1c0.6,0,1,0.5,1,1v1.2v2.5v0.8c0,0.6-0.5,1-1,1c-0.6,0-1-0.5-1-1V8.1z M12.1,9.4
	c0-0.6,0.5-1,1-1c0,0,0.1,0,0.1,0c0.2,0,0.4,0.1,0.5,0.2c0,0,0,0,0,0c0,0,0,0,0,0c0.2,0.2,0.4,0.5,0.4,0.8v2.5c0,0.6-0.5,1-1,1
	s-1-0.5-1-1L12.1,9.4L12.1,9.4z M3.3,8.8c0-0.5,0.2-0.9,0.5-1.1C4,7.5,4.2,7.5,4.4,7.5c0.1,0,0.2,0,0.3,0.1c0.4,0.2,0.7,0.7,0.7,1.2
	v0.4C5.2,9.3,4.9,9.5,4.7,9.8c-0.3,0.4-0.8,0.8-1.3,1.2V8.8z M13.1,21.3h-0.6c-0.2,0-0.4,0.2-0.4,0.4c0,0.2,0.2,0.4,0.4,0.4h0.4v1
	c0,0.5-0.4,1-0.8,1H4.8c-0.6,0-1-0.5-1-1v-0.9c0.4,0.1,0.9,0.2,1.3,0.2c0.3,0,0.7,0,1-0.2c0.6-0.2,1.1-0.7,1.4-1.3
	c0.1-0.2,0-0.5-0.2-0.5c-0.2-0.1-0.5,0-0.5,0.2c-0.2,0.4-0.5,0.7-0.9,0.9c-0.7,0.3-1.6,0.1-2.2-0.2c0,0,0,0-0.1,0
	c-0.1,0-2.7-1.4-2.7-4.8v-1.2c0-1.4,0.4-2.1,1.4-2.5c0,0,0,0,0,0c0,0,0,0,0,0c1.3-0.7,2.5-1.5,3-2.3C5.6,10,6,9.6,6.4,9.9
	C6.8,10.2,7,11,6.8,11.5c-0.7,1.3-2.6,2.8-3.6,3c-0.2,0-0.3,0.3-0.3,0.5c0.1,0.2,0.2,0.3,0.4,0.3c0,0,0.1,0,0.1,0
	c0.6-0.2,1.3-0.6,2-1.2v0.5c0,0.2,0.2,0.4,0.4,0.4c0.3,0,0.4-0.2,0.4-0.4v-1.2c0.5-0.5,0.9-1,1.3-1.5C8,11,7.7,9.8,6.9,9.2
	C6.8,9.1,6.5,9,6.3,9V8.8V8.5V1.9c0-0.3,0.1-0.6,0.4-0.8c0.2-0.2,0.5-0.3,0.9-0.2C8,1,8.3,1.4,8.3,1.9v6.2v4.6c0,1,0.8,1.9,1.9,1.9
	c0.8,0,1.5-0.5,1.8-1.2c0.3,0.2,0.7,0.4,1.2,0.4c0.4,0,0.7-0.1,1-0.3v3C14.2,19.7,14.2,19.8,13.1,21.3z"/>
</svg>
