<?xml version="1.0" encoding="utf-8"?>
<!-- Generator: Adobe Illustrator 25.2.3, SVG Export Plug-In . SVG Version: 6.00 Build 0)  -->
<svg version="1.1" xmlns="http://www.w3.org/2000/svg" xmlns:xlink="http://www.w3.org/1999/xlink" x="0px" y="0px"
	 viewBox="0 0 1040 1040" style="enable-background:new 0 0 1040 1040;" xml:space="preserve">
<style type="text/css">
	.st0{fill:none;stroke:#000000;stroke-linecap:square;stroke-linejoin:round;stroke-miterlimit:10;}
	.st1{fill:none;stroke:#1F1D1D;stroke-linecap:round;stroke-miterlimit:10;}
	.st2{fill:#1F1D1D;}
	.st3{fill:none;stroke:#1F1D1D;stroke-miterlimit:10;}
	.st4{fill:#FFFFFF;}
	.st5{fill:#1F1D1D;stroke:#1F1D1D;stroke-linecap:round;stroke-miterlimit:10;}
	.st6{fill:#1F1D1D;stroke:#1F1D1D;stroke-width:2;stroke-linecap:round;stroke-miterlimit:10;}
	.st7{stroke:#FFFFFF;stroke-miterlimit:10;}
	.st8{fill-rule:evenodd;clip-rule:evenodd;}
	.st9{fill:none;stroke:#1F1D1D;stroke-width:2;stroke-linecap:round;stroke-miterlimit:10;}
	.st10{fill:none;stroke:#1F1D1D;stroke-width:2;stroke-linecap:round;stroke-linejoin:round;stroke-miterlimit:10;}
</style>
<g id="Calque_1">
	<g>
	</g>
</g>
<g id="Calque_2">
	<g id="letter">
		<g>
			<path d="M16.3,1C17.2,1,18,1.8,18,2.7v9.6c0,0.9-0.8,1.7-1.7,1.7H2.7C1.8,14,1,13.2,1,12.3V2.7C1,1.8,1.8,1,2.7,1H16.3 M16.3,0
				H2.7C1.2,0,0,1.2,0,2.7v9.6C0,13.8,1.2,15,2.7,15h13.6c1.5,0,2.7-1.2,2.7-2.7V2.7C19,1.2,17.8,0,16.3,0L16.3,0z"/>
		</g>
		<polyline class="st0" points="18,3.3 9.5,8.5 1,3.3 		"/>
	</g>
	<g>
		<path d="M86,7v9h-5V7H86 M87,6h-6c-0.6,0-1,0.5-1,1v9c0,0.5,0.4,1,1,1h6V6L87,6z"/>
	</g>
	<g>
		<path d="M94,1L94,1l0,21l-7-5.5V6.5L94,1 M94,0c-0.2,0-0.4,0.1-0.6,0.2L86,6v11l7.4,5.8c0.2,0.1,0.4,0.2,0.6,0.2c0.5,0,1-0.4,1-1
			V1C95,0.4,94.5,0,94,0L94,0z"/>
	</g>
	<path class="st1" d="M101,16.9c1.3-1.4,2.1-3.4,2.1-5.6c0-2-0.6-3.8-1.7-5.1"/>
	<path class="st1" d="M103.4,4c1.6,1.8,2.6,4.4,2.6,7.2c0,3.1-1.2,5.9-3.1,7.8"/>
	<g>
		<g>
			<path d="M165.7,7v9H161V7H165.7 M166.7,6H161c-0.6,0-1,0.5-1,1v9c0,0.5,0.4,1,1,1h5.7V6L166.7,6z"/>
		</g>
		<g>
			<path d="M173.4,1.1l0,20.9l-6.7-5.4V6.5L173.4,1.1 M173.5,0c-0.2,0-0.4,0.1-0.6,0.2L165.8,6v11l7.1,5.8c0.2,0.1,0.4,0.2,0.6,0.2
				c0.5,0,1-0.4,1-1V1C174.4,0.4,174,0,173.5,0L173.5,0z"/>
		</g>
	</g>
	<g>
		<line class="st1" x1="177.3" y1="7" x2="186" y2="16"/>
		<line class="st1" x1="186" y1="7" x2="177.3" y2="16"/>
	</g>
	<path class="st2" d="M290,34"/>
	<g>
		<path class="st2" d="M254.8,2.6l6.9,7.4l-6.9,7.4V14v-1h-1h-0.8c-4.4,0-8.7,1.6-11.9,4.5v0c0-2.3,0.6-4.3,1.7-6
			c2-2.9,5.2-4.6,8.7-4.6h2.3h1V6V2.6 M253.8,0v6h-2.3c-3.8,0-7.3,1.8-9.5,5c-1.3,1.9-1.9,4.2-1.9,6.6l0,2.4l0.9-0.9
			c3.2-3.2,7.5-5,12.1-5h0.8v6l9.2-10L253.8,0L253.8,0z"/>
	</g>
	<path class="st2" d="M332.5,0C325.6,0,320,5.6,320,12.5c0,6.9,5.6,12.5,12.5,12.5S345,19.4,345,12.5C345,5.6,339.4,0,332.5,0z
		 M326.6,17.7h-3.4v-1h3.4V17.7z M326.6,16.4h-3.4v-1h3.4V16.4z M326.6,15h-3.4v-1h3.4V15z M326.6,13.7h-3.4v-1h3.4V13.7z
		 M326.6,12.3h-3.4v-1h3.4V12.3z M330.4,17.7H327v-1h3.4V17.7z M330.4,16.4H327v-1h3.4V16.4z M330.4,15H327v-1h3.4V15z M334.2,17.7
		h-3.4v-1h3.4L334.2,17.7z M334.2,16.4h-3.4v-1h3.4L334.2,16.4z M334.2,15h-3.4v-1h3.4L334.2,15z M334.2,13.7h-3.4v-1h3.4
		L334.2,13.7z M334.2,12.3h-3.4v-1h3.4L334.2,12.3z M334.2,11h-3.4v-1h3.4L334.2,11z M334.2,9.7h-3.4v-1h3.4L334.2,9.7z M338,17.7
		h-3.4v-1h3.4L338,17.7z M338,16.4h-3.4v-1h3.4L338,16.4z M338,15h-3.4v-1h3.4L338,15z M338,13.7h-3.4v-1h3.4L338,13.7z M338,12.3
		h-3.4v-1h3.4L338,12.3z M341.8,17.7h-3.4v-1h3.4L341.8,17.7L341.8,17.7z M341.8,16.4h-3.4v-1h3.4L341.8,16.4L341.8,16.4z M341.8,15
		h-3.4v-1h3.4L341.8,15L341.8,15z M341.8,13.7h-3.4v-1h3.4L341.8,13.7L341.8,13.7z M341.8,12.3h-3.4v-1h3.4L341.8,12.3L341.8,12.3z
		 M341.8,11h-3.4v-1h3.4L341.8,11L341.8,11z M341.8,9.7h-3.4v-1h3.4L341.8,9.7L341.8,9.7z M338.4,8.3v-1h3.4v1H338.4z"/>
	<path class="st2" d="M481.3,7.9h1.5V3.5h2.6v4.3h1.5v-3c0.1-0.5,0.4-1.2,1.6-1.3c0,0,1.7-0.3,1.9,1.3v3h1.5V4.2
		c-0.3-2.6-3.7-1.8-3.7-1.8c-0.8,0.2-1.1,0.6-1.2,0.8V2.4h-4.1C482.7,1,484,1,484,1c1.3,0,1.4,0.9,1.4,0.9h1.5
		c0-1.7-2.1-1.9-2.1-1.9c-2.1-0.2-2.8,0.6-2.8,0.6c-0.7,0.6-0.7,1.6-0.6,1.8H480v1.1h1.3L481.3,7.9z M496.6,6.4
		c-0.4,0.5-0.8,0.7-1.4,0.7c-0.5,0-1.5,0.1-1.5-0.7c0-0.8,1.2-0.7,2-0.8c0,0,0.8,0,1-0.2c0,0,0,0,0,0C496.8,5.4,496.9,6,496.6,6.4z
		 M496.6,2.4c-1.6-0.3-2.6,0-2.6,0c-1.6,0.4-1.6,1.8-1.6,1.8h1.5c0,0,0-1.1,1.6-1c0,0,1.2,0.1,1.2,0.6c0,0,0.4,0.7-1.2,0.8
		c-1.6,0.1-3.6,0.1-3.4,1.7c0,0,0,1.6,2.6,1.5c0,0,1.4,0,2-0.7v0l0.1,0.6h1.5l0-3.3C498.4,2.7,496.6,2.4,496.6,2.4L496.6,2.4z
		 M503.5,6.1c-0.2,0.5-0.7,0.8-1.5,0.8c0,0-1.8,0.1-1.9-1.7V5.2c0.1-1.8,1.9-1.7,1.9-1.7c0.8,0,1.3,0.3,1.5,0.8h1.5
		c0-0.2-0.1-0.4-0.2-0.7c-0.4-0.6-1.2-1.4-3.2-1.2c-0.6,0-1,0.1-1.3,0.2c-0.7,0.3-1.8,1-1.7,2.5v0.2c0,1.4,1.1,2.2,1.7,2.5
		c0.4,0.1,0.8,0.2,1.3,0.2c1.3,0.1,2.2-0.2,2.7-0.6c0.7-0.6,0.7-1.3,0.7-1.3L503.5,6.1L503.5,6.1z"/>
	<path class="st2" d="M412.5,0C405.6,0,400,5.6,400,12.5c0,6.9,5.6,12.5,12.5,12.5c6.9,0,12.5-5.6,12.5-12.5
		C425,5.6,419.4,0,412.5,0z M417.9,18.1c-0.2,0.3-0.4,0.4-0.7,0.4c-0.1,0-0.3,0-0.4-0.1c-2.2-1.3-4.8-1.5-6.6-1.5
		c-2,0.1-3.4,0.4-3.4,0.5c-0.5,0.1-0.9-0.1-1-0.6c-0.1-0.5,0.1-0.9,0.6-1c0.1,0,1.6-0.4,3.8-0.5c1.3,0,2.5,0,3.7,0.3
		c1.5,0.3,2.8,0.8,3.9,1.4C418,17.2,418.2,17.7,417.9,18.1z M419.5,14.8c-0.2,0.3-0.5,0.5-0.9,0.5c-0.2,0-0.3,0-0.5-0.1
		c-2.7-1.6-5.7-1.8-7.8-1.7c-2.3,0.1-4.1,0.5-4.1,0.5c-0.5,0.1-1.1-0.2-1.2-0.7c-0.1-0.5,0.2-1.1,0.7-1.2c0.1,0,1.9-0.5,4.5-0.6
		c1.5,0,3,0.1,4.3,0.3c1.7,0.3,3.3,0.9,4.7,1.7C419.6,13.7,419.8,14.4,419.5,14.8z M420.5,11.8c-0.2,0-0.4-0.1-0.6-0.2
		c-6.3-3.7-14.5-1.5-14.6-1.5c-0.7,0.2-1.3-0.2-1.5-0.9c-0.2-0.7,0.2-1.3,0.9-1.5c0.1,0,2.4-0.6,5.5-0.7c1.9-0.1,3.6,0.1,5.3,0.4
		c2.1,0.4,4,1.1,5.7,2.1c0.6,0.3,0.8,1.1,0.4,1.7C421.3,11.6,420.9,11.8,420.5,11.8z"/>
	<g>
		<g>
			<path class="st2" d="M1.4,81c0.1,0,0.1,0,0.2,0l22.5,9.7c0.6,0.2,0.9,0.7,0.9,1.3c0,0.6-0.3,1.1-0.9,1.3L1.6,103
				c-0.1,0-0.1,0-0.2,0c-0.1,0-0.3-0.1-0.4-0.2c-0.1-0.1-0.1-0.2,0-0.3l4-10.1L5.2,92l-0.1-0.4L1,81.5c0-0.1-0.1-0.2,0-0.3
				C1.1,81.1,1.3,81,1.4,81 M1.4,80c-0.9,0-1.7,0.9-1.3,1.9l4,10.1l-4,10.1c-0.4,0.9,0.4,1.9,1.3,1.9c0.2,0,0.4,0,0.6-0.1l22.5-9.7
				c2-0.9,2-3.6,0-4.5L2,80.1C1.8,80,1.6,80,1.4,80L1.4,80z"/>
		</g>
		<line class="st3" x1="4.1" y1="92" x2="25.2" y2="92"/>
	</g>
	<g>
		<g>
			<path d="M660,1v20h-16V1H660 M660,0h-16c-0.6,0-1,0.4-1,1v20c0,0.6,0.4,1,1,1h16c0.6,0,1-0.4,1-1V1C661,0.4,660.6,0,660,0L660,0z
				"/>
		</g>
		<g>
			<path class="st4" d="M641,24.5c-0.3,0-0.5-0.2-0.5-0.5V4c0-0.3,0.2-0.5,0.5-0.5h16c0.3,0,0.5,0.2,0.5,0.5v20
				c0,0.3-0.2,0.5-0.5,0.5H641z"/>
			<path d="M657,4v20h-16V4H657 M657,3h-16c-0.6,0-1,0.4-1,1v20c0,0.6,0.4,1,1,1h16c0.6,0,1-0.4,1-1V4C658,3.4,657.6,3,657,3L657,3z
				"/>
		</g>
	</g>
	<g>
		<path class="st2" d="M720.1,7.4c0.1-1.3,0.3-2.2,0.6-3c0.3-0.8,0.8-1.6,1.4-2.2c0.6-0.6,1.4-1.1,2.2-1.4c0.8-0.3,1.7-0.5,3-0.6
			c1.3-0.1,1.8-0.1,5.2-0.1c3.4,0,3.8,0,5.2,0.1c1.3,0.1,2.2,0.3,3,0.6c0.8,0.3,1.6,0.8,2.2,1.4c0.6,0.6,1.1,1.4,1.4,2.2
			c0.3,0.8,0.5,1.7,0.6,3c0.1,1.3,0.1,1.8,0.1,5.2c0,3.4,0,3.8-0.1,5.2c-0.1,1.3-0.3,2.2-0.6,3c-0.3,0.8-0.8,1.6-1.4,2.2
			c-0.6,0.6-1.4,1.1-2.2,1.4c-0.8,0.3-1.7,0.5-3,0.6c-1.3,0.1-1.8,0.1-5.2,0.1c-3.4,0-3.8,0-5.2-0.1c-1.3-0.1-2.2-0.3-3-0.6
			c-1.7-0.6-3-2-3.7-3.7c-0.3-0.8-0.5-1.7-0.6-3c-0.1-1.3-0.1-1.8-0.1-5.2C720,9.1,720,8.7,720.1,7.4z M722.3,17.6
			c0.1,1.2,0.3,1.9,0.4,2.3c0.4,1.1,1.3,2,2.4,2.4c0.4,0.2,1.1,0.4,2.3,0.4c1.3,0.1,1.7,0.1,5.1,0.1s3.7,0,5.1-0.1
			c1.2-0.1,1.9-0.3,2.3-0.4c0.5-0.2,1-0.5,1.4-0.9c0.4-0.4,0.7-0.9,0.9-1.4c0.2-0.4,0.4-1.1,0.4-2.3c0.1-1.3,0.1-1.7,0.1-5.1
			c0-3.3,0-3.7-0.1-5c-0.1-1.2-0.3-1.9-0.4-2.3c-0.2-0.5-0.5-1-0.9-1.4c-0.4-0.4-0.9-0.7-1.4-0.9c-0.4-0.2-1.1-0.4-2.3-0.4
			c-1.3-0.1-1.7-0.1-5.1-0.1c-3.3,0-3.7,0-5.1,0.1c-1.2,0.1-1.9,0.3-2.3,0.4c-0.5,0.2-1,0.5-1.4,0.9c-0.4,0.4-0.7,0.9-0.9,1.4
			c-0.2,0.4-0.4,1.1-0.4,2.3c-0.1,1.3-0.1,1.7-0.1,5C722.2,15.8,722.3,16.2,722.3,17.6z"/>
		<path class="st2" d="M732.5,6.1c3.5,0,6.4,2.9,6.4,6.4c0,3.5-2.9,6.4-6.4,6.4c-3.5,0-6.4-2.9-6.4-6.4C726.1,9,728.9,6.1,732.5,6.1
			z M732.5,16.7c2.3,0,4.2-1.9,4.2-4.2c0-2.3-1.9-4.2-4.2-4.2c-2.3,0-4.2,1.9-4.2,4.2C728.3,14.8,730.2,16.7,732.5,16.7z"/>
		<path class="st2" d="M724.3,5.8c0,0.8,0.7,1.5,1.5,1.5c0.8,0,1.5-0.7,1.5-1.5c0-0.8-0.7-1.5-1.5-1.5C725,4.3,724.3,5,724.3,5.8z"
			/>
	</g>
	<g>
		<g>
			<line class="st5" x1="816.7" y1="7.2" x2="802" y2="2.6"/>
			<line class="st5" x1="808" y1="8" x2="821" y2="1"/>
		</g>
		<g>
			<line class="st6" x1="801" y1="11" x2="822" y2="11"/>
			<line class="st6" x1="801" y1="24" x2="822" y2="24"/>
			<path class="st2" d="M822,22h-21c-0.6,0-1-0.4-1-1v-7c0-0.6,0.4-1,1-1h21c0.6,0,1,0.4,1,1v7C823,21.6,822.6,22,822,22z"/>
		</g>
	</g>
	<g>
		<g>
			<path d="M891.9,21h-9.7c-1.2,0-2.1-1-2.1-2.1v-4.5c0-3.5,2.9-6.4,6.4-6.4h1.3c3.5,0,6.4,2.9,6.4,6.4v4.5C894,20,893,21,891.9,21z
				"/>
			<g>
				<g>
					<g>
						<path d="M887,9.5c-0.8,0-1.6-0.2-2.3-0.6c-1.3-0.8-2.1-2.2-2.2-3.7c-0.1-2.5,1.8-4.6,4.3-4.7l0.2,0c2.4,0,4.4,1.9,4.5,4.3
							c0.1,1.5-0.7,3-1.9,3.8c-0.7,0.5-1.6,0.8-2.4,0.8L887,9.5z"/>
						<path class="st4" d="M887,1c2.1,0,3.9,1.7,4,3.8c0.1,1.4-0.6,2.7-1.7,3.4C888.7,8.7,888,9,887.2,9c-0.1,0-0.1,0-0.2,0
							c-0.7,0-1.4-0.2-2-0.6c-1.1-0.7-1.9-1.9-1.9-3.3c-0.1-2.2,1.6-4.1,3.8-4.2C886.9,1,887,1,887,1 M887,0c-0.1,0-0.1,0-0.2,0
							c-1.3,0.1-2.6,0.6-3.5,1.6S882,3.9,882,5.2c0.1,1.7,1,3.2,2.4,4.1c0.8,0.5,1.7,0.7,2.6,0.7c0.1,0,0.1,0,0.2,0
							c1,0,1.9-0.4,2.7-0.9c1.4-1,2.2-2.6,2.1-4.3C891.9,2.1,889.7,0,887,0L887,0z"/>
					</g>
				</g>
			</g>
		</g>
		<g>
			<path d="M901.9,21h-9.7c-1.2,0-2.1-1-2.1-2.1v-4.5c0-3.5,2.9-6.4,6.4-6.4h1.3c3.5,0,6.4,2.9,6.4,6.4v4.5C904,20,903,21,901.9,21z
				"/>
			<g>
				<g>
					<g>
						<path d="M897,9.5c-0.8,0-1.6-0.2-2.3-0.6c-1.3-0.8-2.1-2.2-2.2-3.7c-0.1-2.5,1.8-4.6,4.3-4.7l0.2,0c2.4,0,4.4,1.9,4.5,4.3
							c0.1,1.5-0.7,3-1.9,3.8c-0.7,0.5-1.6,0.8-2.4,0.8L897,9.5z"/>
						<path class="st4" d="M897,1c2.1,0,3.9,1.7,4,3.8c0.1,1.4-0.6,2.7-1.7,3.4C898.7,8.7,898,9,897.2,9c-0.1,0-0.1,0-0.2,0
							c-0.7,0-1.4-0.2-2-0.6c-1.1-0.7-1.9-1.9-1.9-3.3c-0.1-2.2,1.6-4.1,3.8-4.2C896.9,1,897,1,897,1 M897,0c-0.1,0-0.1,0-0.2,0
							c-1.3,0.1-2.6,0.6-3.5,1.6S892,3.9,892,5.2c0.1,1.7,1,3.2,2.4,4.1c0.8,0.5,1.7,0.7,2.6,0.7c0.1,0,0.1,0,0.2,0
							c1,0,1.9-0.4,2.7-0.9c1.4-1,2.2-2.6,2.1-4.3C901.9,2.1,899.7,0,897,0L897,0z"/>
					</g>
				</g>
			</g>
		</g>
		<g>
			<path class="st7" d="M896.9,27h-9.7c-1.2,0-2.1-1-2.1-2.1v-4.5c0-3.5,2.9-6.4,6.4-6.4h1.3c3.5,0,6.4,2.9,6.4,6.4v4.5
				C899,26,898,27,896.9,27z"/>
			<g>
				<g>
					<g>
						<path d="M892,15.5c-0.8,0-1.6-0.2-2.3-0.6c-1.3-0.8-2.1-2.2-2.2-3.7c-0.1-2.5,1.8-4.6,4.3-4.7l0.2,0c2.4,0,4.4,1.9,4.5,4.3
							c0.1,1.5-0.7,3-1.9,3.8c-0.7,0.5-1.6,0.8-2.4,0.8L892,15.5z"/>
						<path class="st4" d="M892,7c2.1,0,3.9,1.7,4,3.8c0.1,1.4-0.6,2.7-1.7,3.4c-0.6,0.4-1.4,0.7-2.2,0.7c-0.1,0-0.1,0-0.2,0
							c-0.7,0-1.4-0.2-2-0.6c-1.1-0.7-1.9-1.9-1.9-3.3c-0.1-2.2,1.6-4.1,3.8-4.2C891.9,7,892,7,892,7 M892,6c-0.1,0-0.1,0-0.2,0
							c-1.3,0.1-2.6,0.6-3.5,1.6s-1.4,2.3-1.3,3.6c0.1,1.7,1,3.2,2.4,4.1c0.8,0.5,1.7,0.7,2.6,0.7c0.1,0,0.1,0,0.2,0
							c1,0,1.9-0.4,2.7-0.9c1.4-1,2.2-2.6,2.1-4.3C896.9,8.1,894.7,6,892,6L892,6z"/>
					</g>
				</g>
			</g>
		</g>
	</g>
	<path class="st2" d="M985,3.1v18.8c0,1.7-1.4,3.1-3.1,3.1h-4.7v-8.6h2.3l1.6-3.9h-3.9V9.4c0-0.9,0.7-0.8,1.6-0.8h1.6V4.7h-3.1
		c-2.6,0-4.7,2.1-4.7,4.7v3.1h-3.1v3.9h3.1V25h-9.4c-1.7,0-3.1-1.4-3.1-3.1V3.1c0-1.7,1.4-3.1,3.1-3.1h18.8C983.6,0,985,1.4,985,3.1
		z"/>
	<g>
		<path class="st2" d="M560.2,1.2c-0.1-0.1-0.3,0.1-0.2,0.2c0.9,1.4,4.4,5.7,11.5,5.8c5.1,0.1,9.9-3,11.2-4.7
			c0.1-0.2-0.1-0.4-0.3-0.3c-4.3,1.9-5,2.6-10.3,2.8C566.6,5.1,562.4,2.1,560.2,1.2z"/>
		<path class="st2" d="M580.7,2.1C580.6,2.2,580.6,2.1,580.7,2.1C581,1.5,582-0.3,584,0c0.4,0.1,0.8,0.4,0.9,0.9
			c0.2,0.6-0.1,1.5-0.3,1.9c-0.4,0.8-1,1.2-1.5,1.5c-0.1,0-0.1,0-0.1-0.1c0.4-0.7,1.1-2.1,0.7-2.7C583.2,0.7,581.2,1.8,580.7,2.1z"
			/>
	</g>
	<path d="M95,89.4C95,89.4,95,89.4,95,89.4v-0.2c0,0,0-0.1,0-0.1c0-0.1-0.1-0.3-0.1-0.4c-0.2-0.7-1-1.3-1.8-1.3
		c-0.4,0-0.8,0.1-1.1,0.3c0-0.1,0-0.2-0.1-0.3c-0.2-0.7-1-1.3-1.8-1.3c-0.4,0-0.8,0.1-1,0.3v-4.6c0-0.9-0.6-1.7-1.5-1.9
		c-0.6-0.1-1.1,0-1.6,0.4c-0.5,0.4-0.7,0.9-0.7,1.5V87c-0.1-0.1-0.2-0.2-0.3-0.2c-0.6-0.3-1.2-0.2-1.8,0.2c-0.5,0.4-0.9,1-0.9,1.8
		v2.7l-0.6,0.4c0,0,0,0,0,0c-1.3,0.6-1.8,1.6-1.8,3.3v1.2c0,3.4,2.2,5,2.9,5.5v1.2c0,1,0.8,1.9,1.9,1.9h7.3c1,0,1.7-1,1.7-1.9v-1.3
		c1.2-1.7,1.2-2,1.2-5.4v-4.3V92v-0.1v0V89.4z M89.2,88.1c0-0.6,0.5-1,1-1c0.6,0,1,0.5,1,1v1.2v2.5v0.8c0,0.6-0.5,1-1,1
		c-0.6,0-1-0.5-1-1V88.1z M92.1,89.4c0-0.6,0.5-1,1-1c0,0,0.1,0,0.1,0c0.2,0,0.4,0.1,0.5,0.2c0,0,0,0,0,0c0,0,0,0,0,0
		c0.2,0.2,0.4,0.5,0.4,0.8v2.5c0,0.6-0.5,1-1,1c-0.6,0-1-0.5-1-1L92.1,89.4L92.1,89.4z M83.3,88.8c0-0.5,0.2-0.9,0.5-1.1
		c0.2-0.1,0.3-0.2,0.5-0.2c0.1,0,0.2,0,0.3,0.1c0.4,0.2,0.7,0.7,0.7,1.2v0.4c-0.2,0.1-0.5,0.3-0.8,0.7c-0.3,0.4-0.8,0.8-1.3,1.2
		V88.8z M93.1,101.3h-0.6c-0.2,0-0.4,0.2-0.4,0.4c0,0.2,0.2,0.4,0.4,0.4h0.4v1c0,0.5-0.4,1-0.8,1h-7.3c-0.6,0-1-0.5-1-1v-0.9
		c0.4,0.1,0.9,0.2,1.3,0.2c0.3,0,0.7,0,1-0.2c0.6-0.2,1.1-0.7,1.4-1.3c0.1-0.2,0-0.5-0.2-0.5c-0.2-0.1-0.5,0-0.5,0.2
		c-0.2,0.4-0.5,0.7-0.9,0.9c-0.7,0.3-1.6,0.1-2.2-0.2c0,0,0,0-0.1,0c-0.1,0-2.7-1.4-2.7-4.8v-1.2c0-1.4,0.4-2.1,1.4-2.5c0,0,0,0,0,0
		c0,0,0,0,0,0c1.3-0.7,2.5-1.5,3-2.3c0.3-0.3,0.7-0.7,1.1-0.5c0.4,0.3,0.6,1.1,0.4,1.6c-0.7,1.3-2.6,2.8-3.6,3
		c-0.2,0-0.3,0.3-0.3,0.5c0.1,0.2,0.2,0.3,0.4,0.3c0,0,0.1,0,0.1,0c0.6-0.2,1.3-0.6,2-1.2v0.5c0,0.2,0.2,0.4,0.4,0.4
		c0.3,0,0.4-0.2,0.4-0.4v-1.2c0.5-0.5,0.9-1,1.2-1.5c0.5-0.8,0.2-2.1-0.6-2.7c-0.1-0.1-0.3-0.2-0.6-0.2v-0.2v-0.2v-6.7
		c0-0.3,0.1-0.6,0.4-0.8c0.2-0.2,0.5-0.3,0.9-0.2c0.5,0.1,0.8,0.6,0.8,1.1v6.2v4.6c0,1,0.8,1.9,1.9,1.9c0.8,0,1.5-0.5,1.8-1.2
		c0.3,0.2,0.7,0.4,1.2,0.4c0.4,0,0.7-0.1,1-0.3v3C94.2,99.7,94.2,99.8,93.1,101.3z"/>
	<g id="Layer_5">
	</g>
	<g>
		<g>
			<path class="st8" d="M185,86.9c0-0.2,0-0.5,0-0.8c0-0.5,0-1.1-0.1-1.6c-0.1-0.5-0.3-1.1-0.5-1.6c-0.2-0.5-0.6-0.9-1-1.3
				c-0.4-0.4-0.8-0.7-1.3-1c-0.5-0.3-1-0.4-1.6-0.5c-0.5-0.1-1.1-0.1-1.6-0.1c-0.3,0-0.5,0-0.8,0c-0.3,0-0.6,0-0.9,0h-9.4
				c-0.3,0-0.6,0-0.9,0c-0.2,0-0.5,0-0.8,0c-0.5,0-1.1,0-1.6,0.1c-0.5,0.1-1.1,0.3-1.6,0.5c-0.5,0.2-0.9,0.6-1.3,1
				c-0.4,0.4-0.7,0.8-1,1.3c-0.3,0.5-0.4,1-0.5,1.6c-0.1,0.5-0.1,1.1-0.1,1.6c0,0.2,0,0.5,0,0.8c0,0.3,0,0.6,0,0.9v9.4
				c0,0.3,0,0.6,0,0.9c0,0.3,0,0.5,0,0.8c0,0.5,0,1.1,0.1,1.6c0.1,0.5,0.3,1.1,0.5,1.6c0.2,0.5,0.6,0.9,1,1.3c0.4,0.4,0.8,0.7,1.3,1
				c0.5,0.3,1,0.4,1.6,0.5c0.5,0.1,1.1,0.1,1.6,0.1c0.2,0,0.5,0,0.8,0c0.3,0,0.6,0,0.9,0h9.4c0.3,0,0.6,0,0.9,0c0.2,0,0.5,0,0.8,0
				c0.5,0,1.1,0,1.6-0.1c0.5-0.1,1.1-0.3,1.6-0.5c0.5-0.2,0.9-0.6,1.3-1c0.4-0.4,0.7-0.8,1-1.3c0.3-0.5,0.4-1,0.5-1.6
				c0.1-0.5,0.1-1.1,0.1-1.6c0-0.2,0-0.5,0-0.8c0-0.3,0-0.6,0-0.9v-9.4C185,87.5,185,87.2,185,86.9z M178.3,96.3
				c0,0.3,0,0.6-0.1,0.9c-0.1,0.3-0.2,0.6-0.4,0.9c-0.2,0.3-0.4,0.5-0.7,0.6c-0.3,0.2-0.6,0.3-0.9,0.3c-0.6,0.1-1,0.1-1.3,0.1
				c-0.4-0.1-0.7-0.2-0.9-0.5c-0.4-0.3-0.6-0.8-0.6-1.2c-0.1-0.5,0.1-1.1,0.5-1.6c0.2-0.2,0.5-0.4,0.8-0.5c0.4-0.1,0.8-0.2,1.4-0.3
				c0.2,0,0.3-0.1,0.5-0.1c0.2,0,0.4-0.1,0.5-0.3c0.1-0.2,0.1-0.4,0.1-0.6v-5.5c0-0.4-0.2-0.5-0.6-0.5c-0.3,0.1-6.5,1.3-6.5,1.3
				c-0.3,0.1-0.5,0.2-0.5,0.6V98c0,0.3,0,0.6-0.1,0.9c-0.1,0.3-0.2,0.6-0.4,0.9c-0.2,0.3-0.4,0.5-0.7,0.6c-0.3,0.2-0.6,0.3-0.9,0.3
				c-0.6,0.1-1,0.1-1.3,0.1c-0.4-0.1-0.7-0.2-0.9-0.5c-0.4-0.3-0.6-0.8-0.6-1.2c-0.1-0.5,0.1-1.1,0.5-1.6c0.2-0.2,0.5-0.4,0.8-0.5
				c0.4-0.1,0.8-0.2,1.4-0.3c0.2,0,0.3-0.1,0.5-0.1c0.2,0,0.4-0.1,0.5-0.3c0.1-0.2,0.2-0.4,0.2-0.6c0-1.7,0-9.3,0-9.3
				c0-0.1,0-0.2,0-0.2c0-0.2,0.1-0.4,0.2-0.5c0.1-0.1,0.3-0.2,0.5-0.2h0l7.4-1.5c0.1,0,0.6-0.1,0.7-0.1c0.4,0,0.6,0.2,0.6,0.7
				L178.3,96.3L178.3,96.3z"/>
		</g>
	</g>
	<g>
		<line class="st9" x1="241" y1="91" x2="262" y2="91"/>
		<polyline class="st10" points="252,101 262,91 252,81 		"/>
	</g>
	<g>
		<path class="st2" d="M331.3,98.3c0.9-2.6,3.2-2.6,3.7-4.5c0.2-0.9-0.1-1.5-1.6-3.1l6.8-6.9l2.8-2.3l-1.4-1.4l-2.3,2.8l-7,6.9
			c-1.6-1.6-2.2-1.9-3.1-1.6c-1.9,0.5-2,2.9-4.5,3.7c-1.5,0.5-8.1,2.8-2.5,8.4l0.5,0.5C328.5,106.4,330.7,99.8,331.3,98.3z"/>
		<g>
			<circle class="st4" cx="329.9" cy="93.1" r="1.6"/>
			<path class="st4" d="M327.3,95.7l0.8,0.8c0,0-0.1,0.4,0.5,1l-0.5,0.5l-1.6-1.6c0,0-1.6-1.6-1.6-1.6l0.5-0.5c0.6,0.6,1,0.5,1,0.5
				L327.3,95.7z"/>
		</g>
	</g>
	
		<image style="overflow:visible;" width="852" height="598" xlink:href="../../../../../../../../../Users/jonathanrixhon/Pictures/Screenshots/Capture d’écran 2021-06-05 à 16.17.12.png"  transform="matrix(0.2031 0 0 0.2031 -1291 -767)">
	</image>
	<g>
		<rect x="-878.9" y="-729.2" class="st2" width="44" height="107"/>
		<g>
			<g>
				<circle class="st4" cx="-865.4" cy="-698.2" r="4"/>
			</g>
			<g>
				<circle class="st4" cx="-865.4" cy="-683.2" r="4"/>
			</g>
			<g>
				<circle class="st4" cx="-865.4" cy="-668.2" r="4"/>
			</g>
			<g>
				<circle class="st4" cx="-865.4" cy="-653.2" r="4"/>
			</g>
			<g>
				<circle class="st4" cx="-848.4" cy="-698.2" r="4"/>
			</g>
			<g>
				<circle class="st4" cx="-848.4" cy="-683.2" r="4"/>
			</g>
			<g>
				<circle class="st4" cx="-848.4" cy="-668.2" r="4"/>
			</g>
			<g>
				<circle class="st4" cx="-848.4" cy="-653.2" r="4"/>
			</g>
		</g>
	</g>
	<g>
		<g>
			<rect x="-991.8" y="-655.7" transform="matrix(0.7431 -0.6691 0.6691 0.7431 183.0532 -790.6288)" width="107" height="44"/>
		</g>
		<g>
			<circle class="st4" cx="-927.3" cy="-655.1" r="4"/>
		</g>
		<g>
			<circle class="st4" cx="-938.4" cy="-645.1" r="4"/>
		</g>
		<g>
			<circle class="st4" cx="-949.6" cy="-635" r="4"/>
		</g>
		<g>
			<circle class="st4" cx="-960.7" cy="-625" r="4"/>
		</g>
		<g>
			<circle class="st4" cx="-915.9" cy="-642.5" r="4"/>
		</g>
		<g>
			<circle class="st4" cx="-927" cy="-632.5" r="4"/>
		</g>
		<g>
			<circle class="st4" cx="-938.2" cy="-622.4" r="4"/>
		</g>
		<g>
			<circle class="st4" cx="-949.3" cy="-612.4" r="4"/>
		</g>
		
			<rect x="-1093.8" y="-750.5" transform="matrix(-0.9986 -5.233612e-02 5.233612e-02 -0.9986 -2105.5913 -1449.1908)" class="st2" width="44" height="107"/>
		<g>
			<path class="st4" d="M-1087.2-746.4l36,1.9c0.6,0,1,0.5,0.9,1.1l-0.6,11c0,0.6-0.5,1-1.1,0.9l-36-1.9c-0.6,0-1-0.5-0.9-1.1
				l0.6-11C-1088.2-746-1087.8-746.4-1087.2-746.4z"/>
		</g>
		<g>
			<path class="st4" d="M-1087.9-732.4l36,1.9c0.6,0,1,0.5,0.9,1.1l-0.6,11c0,0.6-0.5,1-1.1,0.9l-36-1.9c-0.6,0-1-0.5-0.9-1.1
				l0.6-11C-1089-732-1088.5-732.5-1087.9-732.4z"/>
		</g>
		<g>
			<path class="st4" d="M-1088.7-718.4l36,1.9c0.6,0,1,0.5,0.9,1.1l-0.6,11c0,0.6-0.5,1-1.1,0.9l-36-1.9c-0.6,0-1-0.5-0.9-1.1
				l0.6-11C-1089.7-718-1089.2-718.5-1088.7-718.4z"/>
		</g>
		<g>
			<path class="st4" d="M-1089.4-704.5l36,1.9c0.6,0,1,0.5,0.9,1.1l-0.6,11c0,0.6-0.5,1-1.1,0.9l-36-1.9c-0.6,0-1-0.5-0.9-1.1
				l0.6-11C-1090.4-704.1-1090-704.5-1089.4-704.5z"/>
		</g>
		<g>
			<path class="st4" d="M-1090.1-690.5l36,1.9c0.6,0,1,0.5,0.9,1.1l-0.6,11c0,0.6-0.5,1-1.1,0.9l-36-1.9c-0.6,0-1-0.5-0.9-1.1
				l0.6-11C-1091.2-690.1-1090.7-690.5-1090.1-690.5z"/>
		</g>
		<g>
			<path class="st4" d="M-1090.9-676.5l36,1.9c0.6,0,1,0.5,0.9,1.1l-0.6,11c0,0.6-0.5,1-1.1,0.9l-36-1.9c-0.6,0-1-0.5-0.9-1.1
				l0.6-11C-1091.9-676.1-1091.4-676.5-1090.9-676.5z"/>
		</g>
		<g>
			<path class="st4" d="M-1091.6-662.5l36,1.9c0.6,0,1,0.5,0.9,1.1l-0.6,11c0,0.6-0.5,1-1.1,0.9l-36-1.9c-0.6,0-1-0.5-0.9-1.1
				l0.6-11C-1092.6-662.1-1092.2-662.5-1091.6-662.5z"/>
		</g>
		<g>
			<path d="M-1068.8-735.4l17,0.9c0.6,0,1,0.5,0.9,1.1l-0.3,5c0,0.6-0.5,1-1.1,0.9l-17-0.9c-0.6,0-1-0.5-0.9-1.1l0.3-5
				C-1069.8-735-1069.3-735.5-1068.8-735.4z"/>
		</g>
		<g>
			<path d="M-1069.5-721.4l17,0.9c0.6,0,1,0.5,0.9,1.1l-0.3,5c0,0.6-0.5,1-1.1,0.9l-17-0.9c-0.6,0-1-0.5-0.9-1.1l0.3-5
				C-1070.5-721-1070-721.5-1069.5-721.4z"/>
		</g>
		<g>
			<path d="M-1070.2-707.5l17,0.9c0.6,0,1,0.5,0.9,1.1l-0.3,5c0,0.6-0.5,1-1.1,0.9l-17-0.9c-0.6,0-1-0.5-0.9-1.1l0.3-5
				C-1071.2-707.1-1070.8-707.5-1070.2-707.5z"/>
		</g>
		<g>
			<path d="M-1071-693.5l17,0.9c0.6,0,1,0.5,0.9,1.1l-0.3,5c0,0.6-0.5,1-1.1,0.9l-17-0.9c-0.6,0-1-0.5-0.9-1.1l0.3-5
				C-1072-693.1-1071.5-693.5-1071-693.5z"/>
		</g>
		<g>
			<path d="M-1071.7-679.5l17,0.9c0.6,0,1,0.5,0.9,1.1l-0.3,5c0,0.6-0.5,1-1.1,0.9l-17-0.9c-0.6,0-1-0.5-0.9-1.1l0.3-5
				C-1072.7-679.1-1072.2-679.5-1071.7-679.5z"/>
		</g>
		<g>
			<path d="M-1072.4-665.5l17,0.9c0.6,0,1,0.5,0.9,1.1l-0.3,5c0,0.6-0.5,1-1.1,0.9l-17-0.9c-0.6,0-1-0.5-0.9-1.1l0.3-5
				C-1073.4-665.1-1073-665.5-1072.4-665.5z"/>
		</g>
		<polygon points="-998.1,-619.8 -993.4,-615 -915.3,-688.3 -924.9,-697.8 		"/>
		<polygon points="-1003.8,-624.6 -998.7,-620.3 -927.3,-700.1 -937.6,-708.8 		"/>
		<polygon points="-1009.9,-628.9 -1004.4,-625 -940.3,-710.8 -951.3,-718.5 		"/>
		<polygon points="-1016.4,-632.7 -1010.5,-629.3 -954.1,-720.3 -965.8,-727 		"/>
		<polygon points="-1023.1,-635.9 -1017,-633 -968.7,-728.6 -981,-734.3 		"/>
		<polygon points="-1030.1,-638.4 -1023.8,-636.1 -984,-735.5 -996.7,-740.1 		"/>
		<polygon points="-1037.3,-640.4 -1030.8,-638.7 -999.9,-741.1 -1012.9,-744.6 		"/>
		<polygon points="-1044.7,-641.7 -1038,-640.6 -1016.1,-745.3 -1029.4,-747.7 		"/>
		<polygon points="-1052.1,-642.4 -1045.4,-641.8 -1032.7,-748.1 -1046.2,-749.3 		"/>
	</g>
	<g>
		<g>
			<rect x="417.6" y="86.7" transform="matrix(0.3907 -0.9205 0.9205 0.3907 176.2656 445.4261)" width="14" height="5.8"/>
		</g>
		<g>
			<circle class="st4" cx="424.7" cy="86.4" r="0.5"/>
		</g>
		<g>
			<circle class="st4" cx="424" cy="88.2" r="0.5"/>
		</g>
		<g>
			<circle class="st4" cx="423.2" cy="90" r="0.5"/>
		</g>
		<g>
			<circle class="st4" cx="422.4" cy="91.8" r="0.5"/>
		</g>
		<g>
			<circle class="st4" cx="426.8" cy="87.3" r="0.5"/>
		</g>
		<g>
			<circle class="st4" cx="426" cy="89.1" r="0.5"/>
		</g>
		<g>
			<circle class="st4" cx="425.3" cy="90.9" r="0.5"/>
		</g>
		<g>
			<circle class="st4" cx="424.5" cy="92.7" r="0.5"/>
		</g>
		
			<rect x="402.4" y="82.4" transform="matrix(-0.9272 0.3746 -0.3746 -0.9272 814.5731 20.5342)" class="st2" width="5.8" height="14"/>
		<g>
			<path class="st4" d="M401.4,84.2l3-1.2c0.4-0.2,0.9,0,1.1,0.5v0c0.2,0.4,0,0.9-0.5,1.1l-3,1.2c-0.4,0.2-0.9,0-1.1-0.5v0
				C400.8,84.8,401,84.3,401.4,84.2z"/>
		</g>
		<g>
			<path class="st4" d="M402.1,85.9l3-1.2c0.4-0.2,0.9,0,1.1,0.5l0,0c0.2,0.4,0,0.9-0.5,1.1l-3,1.2c-0.4,0.2-0.9,0-1.1-0.5l0,0
				C401.4,86.5,401.6,86,402.1,85.9z"/>
		</g>
		<g>
			<path class="st4" d="M402.8,87.6l3-1.2c0.4-0.2,0.9,0,1.1,0.5v0c0.2,0.4,0,0.9-0.5,1.1l-3,1.2c-0.4,0.2-0.9,0-1.1-0.5v0
				C402.1,88.2,402.3,87.7,402.8,87.6z"/>
		</g>
		<g>
			<path class="st4" d="M403.5,89.3l3-1.2c0.4-0.2,0.9,0,1.1,0.5l0,0c0.2,0.4,0,0.9-0.5,1.1l-3,1.2c-0.4,0.2-0.9,0-1.1-0.5l0,0
				C402.8,89.9,403,89.4,403.5,89.3z"/>
		</g>
		<g>
			<path class="st4" d="M404.1,91l3-1.2c0.4-0.2,0.9,0,1.1,0.5l0,0c0.2,0.4,0,0.9-0.5,1.1l-3,1.2c-0.4,0.2-0.9,0-1.1-0.5v0
				C403.5,91.6,403.7,91.1,404.1,91z"/>
		</g>
		<g>
			<path class="st4" d="M404.8,92.7l3-1.2c0.4-0.2,0.9,0,1.1,0.5l0,0c0.2,0.4,0,0.9-0.5,1.1l-3,1.2c-0.4,0.2-0.9,0-1.1-0.5l0,0
				C404.2,93.3,404.4,92.8,404.8,92.7z"/>
		</g>
		<g>
			<path class="st4" d="M405.5,94.4l3-1.2c0.4-0.2,0.9,0,1.1,0.5l0,0c0.2,0.4,0,0.9-0.5,1.1l-3,1.2c-0.4,0.2-0.9,0-1.1-0.5v0
				C404.9,95,405.1,94.5,405.5,94.4z"/>
		</g>
		<g>
			<path d="M403.8,84.6l1.5-0.6c0.2-0.1,0.5,0,0.6,0.3l0,0c0.1,0.2,0,0.5-0.3,0.6l-1.5,0.6c-0.2,0.1-0.5,0-0.6-0.3l0,0
				C403.5,85,403.6,84.7,403.8,84.6z"/>
		</g>
		<g>
			<path d="M404.5,86.3l1.5-0.6c0.2-0.1,0.5,0,0.6,0.3l0,0c0.1,0.2,0,0.5-0.3,0.6l-1.5,0.6c-0.2,0.1-0.5,0-0.6-0.3l0,0
				C404.2,86.7,404.3,86.4,404.5,86.3z"/>
		</g>
		<g>
			<path d="M405.2,88l1.5-0.6c0.2-0.1,0.5,0,0.6,0.3l0,0c0.1,0.2,0,0.5-0.3,0.6l-1.5,0.6c-0.2,0.1-0.5,0-0.6-0.3l0,0
				C404.9,88.4,405,88.1,405.2,88z"/>
		</g>
		<g>
			<path d="M405.9,89.7l1.5-0.6c0.2-0.1,0.5,0,0.6,0.3l0,0c0.1,0.2,0,0.5-0.3,0.6l-1.5,0.6c-0.2,0.1-0.5,0-0.6-0.3l0,0
				C405.5,90.1,405.7,89.8,405.9,89.7z"/>
		</g>
		<g>
			<path d="M406.6,91.4l1.5-0.6c0.2-0.1,0.5,0,0.6,0.3l0,0c0.1,0.2,0,0.5-0.3,0.6l-1.5,0.6c-0.2,0.1-0.5,0-0.6-0.3l0,0
				C406.2,91.7,406.3,91.5,406.6,91.4z"/>
		</g>
		<g>
			<path d="M407.3,93.1l1.5-0.6c0.2-0.1,0.5,0,0.6,0.3l0,0c0.1,0.2,0,0.5-0.3,0.6l-1.5,0.6c-0.2,0.1-0.5,0-0.6-0.3l0,0
				C406.9,93.4,407,93.2,407.3,93.1z"/>
		</g>
		<polygon points="418.3,94.5 419.1,94.8 424.3,81.8 422.7,81.2 		"/>
		<polygon points="417.3,94.3 418.2,94.5 422.3,81.1 420.5,80.6 		"/>
		<polygon points="416.4,94.1 417.3,94.2 420.1,80.5 418.4,80.2 		"/>
		<polygon points="415.4,94 416.3,94.1 418,80.2 416.2,80 		"/>
		<polygon points="414.4,94 415.3,94 415.8,80 414,80 		"/>
		<polygon points="413.5,94.1 414.3,94 413.6,80 411.8,80.2 		"/>
		<polygon points="412.5,94.2 413.4,94.1 411.4,80.2 409.6,80.5 		"/>
		<polygon points="411.6,94.5 412.4,94.3 409.2,80.6 407.5,81.1 		"/>
		<polygon points="410.6,94.8 411.5,94.5 407.1,81.2 405.4,81.8 		"/>
	</g>
	<g>
		<polygon class="st4" points="-1172.8,-335.1 -1169.3,-336.6 -1169.3,-326.6 		"/>
	</g>
</g>
</svg>
