<?xml version="1.0" encoding="utf-8"?>
<!-- Generator: Adobe Illustrator 25.2.3, SVG Export Plug-In . SVG Version: 6.00 Build 0)  -->
<svg version="1.1" id="Calque_1" xmlns="http://www.w3.org/2000/svg" xmlns:xlink="http://www.w3.org/1999/xlink" x="0px" y="0px"
	 viewBox="0 0 1040 1040" style="enable-background:new 0 0 1040 1040;" xml:space="preserve">
<style type="text/css">
	.st0{fill:#201D1D;}
	.st1{fill:none;stroke:#201D1D;stroke-linecap:square;stroke-linejoin:round;stroke-miterlimit:10;}
	.st2{fill:none;stroke:#201D1D;stroke-linecap:round;stroke-miterlimit:10;}
	.st3{fill:#1F1D1D;}
	.st4{fill:#DD8D34;}
	.st5{fill:none;stroke:#1F1D1D;stroke-miterlimit:10;}
	.st6{fill:none;stroke:#201D1D;stroke-miterlimit:10;}
	.st7{fill:none;stroke:#FFFFFF;stroke-linecap:round;stroke-miterlimit:10;}
	.st8{fill:none;stroke:#FFFFFF;stroke-width:2;stroke-linecap:round;stroke-miterlimit:10;}
	.st9{fill:#FFFFFF;}
	.st10{fill-rule:evenodd;clip-rule:evenodd;fill:#DD8D34;}
	.st11{fill:none;}
	.st12{fill:none;stroke:#FFFFFF;stroke-width:2;stroke-linecap:round;stroke-linejoin:round;stroke-miterlimit:10;}
	.st13{fill:none;stroke:#201D1D;stroke-linecap:round;stroke-linejoin:round;stroke-miterlimit:10;}
	.st14{fill:none;stroke:#000000;stroke-width:2;stroke-linecap:round;stroke-miterlimit:10;}
	.st15{fill:none;stroke:#201D1D;stroke-width:2;stroke-linecap:round;stroke-linejoin:round;stroke-miterlimit:10;}
</style>
<g id="Calque_1_1_">
</g>
<g id="Calque_2_1_">
	<g id="letter">
		<g>
			<path class="st0" d="M16.3,1C17.2,1,18,1.8,18,2.7v9.6c0,0.9-0.8,1.7-1.7,1.7H2.7C1.8,14,1,13.2,1,12.3V2.7C1,1.8,1.8,1,2.7,1
				H16.3 M16.3,0H2.7C1.2,0,0,1.2,0,2.7v9.6C0,13.8,1.2,15,2.7,15h13.6c1.5,0,2.7-1.2,2.7-2.7V2.7C19,1.2,17.8,0,16.3,0L16.3,0z"/>
		</g>
		<polyline class="st1" points="18,3.3 9.5,8.5 1,3.3 		"/>
	</g>
	<g>
		<path class="st0" d="M86,7v9h-5V7H86 M87,6h-6c-0.6,0-1,0.5-1,1v9c0,0.5,0.4,1,1,1h6V6L87,6z"/>
	</g>
	<g>
		<path class="st0" d="M94,1L94,1v21l-7-5.5v-10L94,1 M94,0c-0.2,0-0.4,0.1-0.6,0.2L86,6v11l7.4,5.8c0.2,0.1,0.4,0.2,0.6,0.2
			c0.5,0,1-0.4,1-1V1C95,0.4,94.5,0,94,0L94,0z"/>
	</g>
	<path class="st2" d="M101,16.9c1.3-1.4,2.1-3.4,2.1-5.6c0-2-0.6-3.8-1.7-5.1"/>
	<path class="st2" d="M103.4,4c1.6,1.8,2.6,4.4,2.6,7.2c0,3.1-1.2,5.9-3.1,7.8"/>
	<g>
		<g>
			<path class="st0" d="M165.7,7v9H161V7H165.7 M166.7,6H161c-0.6,0-1,0.5-1,1v9c0,0.5,0.4,1,1,1h5.7V6L166.7,6z"/>
		</g>
		<g>
			<path class="st0" d="M173.4,1.1V22l-6.7-5.4V6.5L173.4,1.1 M173.5,0c-0.2,0-0.4,0.1-0.6,0.2L165.8,6v11l7.1,5.8
				c0.2,0.1,0.4,0.2,0.6,0.2c0.5,0,1-0.4,1-1V1C174.4,0.4,174,0,173.5,0L173.5,0z"/>
		</g>
	</g>
	<g>
		<line class="st2" x1="177.3" y1="7" x2="186" y2="16"/>
		<line class="st2" x1="186" y1="7" x2="177.3" y2="16"/>
	</g>
	<path class="st3" d="M290,34"/>
	<g>
		<path class="st0" d="M254.8,2.6l6.9,7.4l-6.9,7.4V14v-1h-1H253c-4.4,0-8.7,1.6-11.9,4.5l0,0c0-2.3,0.6-4.3,1.7-6
			c2-2.9,5.2-4.6,8.7-4.6h2.3h1V6L254.8,2.6 M253.8,0v6h-2.3c-3.8,0-7.3,1.8-9.5,5c-1.3,1.9-1.9,4.2-1.9,6.6V20l0.9-0.9
			c3.2-3.2,7.5-5,12.1-5h0.8v6l9.2-10L253.8,0L253.8,0z"/>
	</g>
	<path class="st4" d="M332.5,0C325.6,0,320,5.6,320,12.5S325.6,25,332.5,25S345,19.4,345,12.5S339.4,0,332.5,0z M326.6,17.7h-3.4v-1
		h3.4V17.7z M326.6,16.4h-3.4v-1h3.4V16.4z M326.6,15h-3.4v-1h3.4V15z M326.6,13.7h-3.4v-1h3.4V13.7z M326.6,12.3h-3.4v-1h3.4V12.3z
		 M330.4,17.7H327v-1h3.4V17.7z M330.4,16.4H327v-1h3.4V16.4z M330.4,15H327v-1h3.4V15z M334.2,17.7h-3.4v-1h3.4V17.7z M334.2,16.4
		h-3.4v-1h3.4V16.4z M334.2,15h-3.4v-1h3.4V15z M334.2,13.7h-3.4v-1h3.4V13.7z M334.2,12.3h-3.4v-1h3.4V12.3z M334.2,11h-3.4v-1h3.4
		V11z M334.2,9.7h-3.4v-1h3.4V9.7z M338,17.7h-3.4v-1h3.4V17.7z M338,16.4h-3.4v-1h3.4V16.4z M338,15h-3.4v-1h3.4V15z M338,13.7
		h-3.4v-1h3.4V13.7z M338,12.3h-3.4v-1h3.4V12.3z M341.8,17.7h-3.4v-1h3.4V17.7L341.8,17.7z M341.8,16.4h-3.4v-1h3.4V16.4
		L341.8,16.4z M341.8,15h-3.4v-1h3.4V15L341.8,15z M341.8,13.7h-3.4v-1h3.4V13.7L341.8,13.7z M341.8,12.3h-3.4v-1h3.4V12.3
		L341.8,12.3z M341.8,11h-3.4v-1h3.4V11L341.8,11z M341.8,9.7h-3.4v-1h3.4V9.7L341.8,9.7z M338.4,8.3v-1h3.4v1H338.4z"/>
	<path class="st4" d="M481.3,7.9h1.5V3.5h2.6v4.3h1.5v-3c0.1-0.5,0.4-1.2,1.6-1.3c0,0,1.7-0.3,1.9,1.3v3h1.5V4.2
		c-0.3-2.6-3.7-1.8-3.7-1.8c-0.8,0.2-1.1,0.6-1.2,0.8V2.4h-4.1C482.7,1,484,1,484,1c1.3,0,1.4,0.9,1.4,0.9h1.5
		c0-1.7-2.1-1.9-2.1-1.9c-2.1-0.2-2.8,0.6-2.8,0.6c-0.7,0.6-0.7,1.6-0.6,1.8H480v1.1h1.3V7.9z M496.6,6.4c-0.4,0.5-0.8,0.7-1.4,0.7
		c-0.5,0-1.5,0.1-1.5-0.7s1.2-0.7,2-0.8c0,0,0.8,0,1-0.2l0,0C496.8,5.4,496.9,6,496.6,6.4z M496.6,2.4c-1.6-0.3-2.6,0-2.6,0
		c-1.6,0.4-1.6,1.8-1.6,1.8h1.5c0,0,0-1.1,1.6-1c0,0,1.2,0.1,1.2,0.6c0,0,0.4,0.7-1.2,0.8c-1.6,0.1-3.6,0.1-3.4,1.7
		c0,0,0,1.6,2.6,1.5c0,0,1.4,0,2-0.7l0,0l0.1,0.6h1.5V4.4C498.4,2.7,496.6,2.4,496.6,2.4L496.6,2.4z M503.5,6.1
		c-0.2,0.5-0.7,0.8-1.5,0.8c0,0-1.8,0.1-1.9-1.7l0,0c0.1-1.8,1.9-1.7,1.9-1.7c0.8,0,1.3,0.3,1.5,0.8h1.5c0-0.2-0.1-0.4-0.2-0.7
		c-0.4-0.6-1.2-1.4-3.2-1.2c-0.6,0-1,0.1-1.3,0.2c-0.7,0.3-1.8,1-1.7,2.5v0.2c0,1.4,1.1,2.2,1.7,2.5c0.4,0.1,0.8,0.2,1.3,0.2
		c1.3,0.1,2.2-0.2,2.7-0.6c0.7-0.6,0.7-1.3,0.7-1.3L503.5,6.1L503.5,6.1z"/>
	<path class="st4" d="M412.5,0C405.6,0,400,5.6,400,12.5S405.6,25,412.5,25S425,19.4,425,12.5S419.4,0,412.5,0z M417.9,18.1
		c-0.2,0.3-0.4,0.4-0.7,0.4c-0.1,0-0.3,0-0.4-0.1c-2.2-1.3-4.8-1.5-6.6-1.5c-2,0.1-3.4,0.4-3.4,0.5c-0.5,0.1-0.9-0.1-1-0.6
		s0.1-0.9,0.6-1c0.1,0,1.6-0.4,3.8-0.5c1.3,0,2.5,0,3.7,0.3c1.5,0.3,2.8,0.8,3.9,1.4C418,17.2,418.2,17.7,417.9,18.1z M419.5,14.8
		c-0.2,0.3-0.5,0.5-0.9,0.5c-0.2,0-0.3,0-0.5-0.1c-2.7-1.6-5.7-1.8-7.8-1.7c-2.3,0.1-4.1,0.5-4.1,0.5c-0.5,0.1-1.1-0.2-1.2-0.7
		s0.2-1.1,0.7-1.2c0.1,0,1.9-0.5,4.5-0.6c1.5,0,3,0.1,4.3,0.3c1.7,0.3,3.3,0.9,4.7,1.7C419.6,13.7,419.8,14.4,419.5,14.8z
		 M420.5,11.8c-0.2,0-0.4-0.1-0.6-0.2c-6.3-3.7-14.5-1.5-14.6-1.5c-0.7,0.2-1.3-0.2-1.5-0.9s0.2-1.3,0.9-1.5c0.1,0,2.4-0.6,5.5-0.7
		c1.9-0.1,3.6,0.1,5.3,0.4c2.1,0.4,4,1.1,5.7,2.1c0.6,0.3,0.8,1.1,0.4,1.7C421.3,11.6,420.9,11.8,420.5,11.8z"/>
	<g>
		<g>
			<path class="st3" d="M1.4,81c0.1,0,0.1,0,0.2,0l22.5,9.7c0.6,0.2,0.9,0.7,0.9,1.3c0,0.6-0.3,1.1-0.9,1.3L1.6,103
				c-0.1,0-0.1,0-0.2,0s-0.3-0.1-0.4-0.2c-0.1-0.1-0.1-0.2,0-0.3l4-10.1L5.2,92l-0.1-0.4L1,81.5c0-0.1-0.1-0.2,0-0.3
				C1.1,81.1,1.3,81,1.4,81 M1.4,80c-0.9,0-1.7,0.9-1.3,1.9l4,10.1l-4,10.1c-0.4,0.9,0.4,1.9,1.3,1.9c0.2,0,0.4,0,0.6-0.1l22.5-9.7
				c2-0.9,2-3.6,0-4.5L2,80.1C1.8,80,1.6,80,1.4,80L1.4,80z"/>
		</g>
		<line class="st5" x1="4.1" y1="92" x2="25.2" y2="92"/>
	</g>
	<g>
		<path class="st6" d="M643,4V2c0-0.5,0.4-1,0.9-1H659c0.5,0,0.9,0.5,0.9,1v20c0,0.5-0.4,1-0.9,1h-1.9"/>
		<g>
			<path class="st0" d="M657,4v20h-16V4H657 M657,3h-16c-0.5,0-1,0.5-1,1v20c0,0.5,0.5,1,1,1h16c0.5,0,1-0.5,1-1V4
				C658,3.5,657.5,3,657,3L657,3z"/>
		</g>
	</g>
	<g>
		<path class="st0" d="M720.1,7.4c0.1-1.3,0.3-2.2,0.6-3s0.8-1.6,1.4-2.2c0.6-0.6,1.4-1.1,2.2-1.4s1.7-0.5,3-0.6s1.8-0.1,5.2-0.1
			s3.8,0,5.2,0.1c1.3,0.1,2.2,0.3,3,0.6s1.6,0.8,2.2,1.4c0.6,0.6,1.1,1.4,1.4,2.2c0.3,0.8,0.5,1.7,0.6,3s0.1,1.8,0.1,5.2
			s0,3.8-0.1,5.2c-0.1,1.3-0.3,2.2-0.6,3s-0.8,1.6-1.4,2.2c-0.6,0.6-1.4,1.1-2.2,1.4s-1.7,0.5-3,0.6s-1.8,0.1-5.2,0.1
			s-3.8,0-5.2-0.1c-1.3-0.1-2.2-0.3-3-0.6c-1.7-0.6-3-2-3.7-3.7c-0.3-0.8-0.5-1.7-0.6-3s-0.1-1.8-0.1-5.2C720,9.1,720,8.7,720.1,7.4
			z M722.3,17.6c0.1,1.2,0.3,1.9,0.4,2.3c0.4,1.1,1.3,2,2.4,2.4c0.4,0.2,1.1,0.4,2.3,0.4c1.3,0.1,1.7,0.1,5.1,0.1s3.7,0,5.1-0.1
			c1.2-0.1,1.9-0.3,2.3-0.4c0.5-0.2,1-0.5,1.4-0.9s0.7-0.9,0.9-1.4c0.2-0.4,0.4-1.1,0.4-2.3c0.1-1.3,0.1-1.7,0.1-5.1
			c0-3.3,0-3.7-0.1-5c-0.1-1.2-0.3-1.9-0.4-2.3c-0.2-0.5-0.5-1-0.9-1.4s-0.9-0.7-1.4-0.9c-0.4-0.2-1.1-0.4-2.3-0.4
			c-1.3-0.1-1.7-0.1-5.1-0.1c-3.3,0-3.7,0-5.1,0.1c-1.2,0.1-1.9,0.3-2.3,0.4c-0.5,0.2-1,0.5-1.4,0.9s-0.7,0.9-0.9,1.4
			c-0.2,0.4-0.4,1.1-0.4,2.3c-0.1,1.3-0.1,1.7-0.1,5C722.2,15.8,722.3,16.2,722.3,17.6z"/>
		<path class="st0" d="M732.5,6.1c3.5,0,6.4,2.9,6.4,6.4s-2.9,6.4-6.4,6.4s-6.4-2.9-6.4-6.4S728.9,6.1,732.5,6.1z M732.5,16.7
			c2.3,0,4.2-1.9,4.2-4.2s-1.9-4.2-4.2-4.2s-4.2,1.9-4.2,4.2S730.2,16.7,732.5,16.7z"/>
		<path class="st0" d="M724.3,5.8c0,0.8,0.7,1.5,1.5,1.5s1.5-0.7,1.5-1.5s-0.7-1.5-1.5-1.5S724.3,5,724.3,5.8z"/>
	</g>
	<g>
		<line class="st7" x1="818.1" y1="7.8" x2="802.2" y2="2.7"/>
		<line class="st7" x1="808.7" y1="8.6" x2="822.8" y2="1"/>
	</g>
	<line class="st8" x1="801.1" y1="11.9" x2="823.9" y2="11.9"/>
	<line class="st8" x1="801.1" y1="26" x2="823.9" y2="26"/>
	<path class="st9" d="M824,23.8h-23c-0.6,0-1-0.4-1-1V15c0-0.6,0.4-1,1-1h23c0.6,0,1,0.4,1,1v7.8C825,23.4,824.6,23.8,824,23.8z"/>
	<g>
		<path class="st9" d="M886.7,10c0,1.1,0.5,2.2,1.2,3c-2.1,1.1-3.6,3.3-3.6,6v0.6H882c-1.1,0-2-1-2-2.1v-4.4c0-2.5,1.4-4.6,3.4-5.6
			c0.2,0.2,0.5,0.5,0.8,0.6c0.7,0.5,1.6,0.7,2.5,0.7h0.1C886.8,9.2,886.7,9.6,886.7,10z"/>
		<path class="st9" d="M903,13.1v4.4c0,1.2-0.9,2.1-2,2.1h-2.3V19c0-2.6-1.4-4.9-3.5-6c0.8-0.9,1.2-2.1,1.2-3.4c0-0.3,0-0.5-0.1-0.8
			h0.3c0.9,0,1.8-0.3,2.6-0.9c0.2-0.1,0.3-0.3,0.5-0.4C901.6,8.5,903,10.7,903,13.1z"/>
		<path class="st9" d="M890.6,3.8c0,0.4,0,0.9-0.2,1.3l0,0c-0.9,0.2-1.7,0.7-2.4,1.4c-0.4,0.4-0.7,0.9-0.9,1.3c-0.1,0-0.2,0-0.3,0
			c-0.8,0-1.5-0.2-2.1-0.6c-1.1-0.7-1.8-1.8-1.9-3.2c-0.1-2.2,1.6-4,3.7-4C888.7-0.1,890.5,1.6,890.6,3.8z"/>
		<path class="st9" d="M893.9,6.8c-0.2-0.2-0.4-0.3-0.6-0.4l0,0C893.5,6.5,893.7,6.6,893.9,6.8z"/>
		<path class="st9" d="M894.5,7.4L894.5,7.4L894.5,7.4c-0.1-0.1-0.1-0.1-0.2-0.2C894.4,7.3,894.5,7.3,894.5,7.4z"/>
		<path class="st9" d="M900.2,3.8c0,1.2-0.4,2.3-1.3,3c-0.1,0.1-0.2,0.2-0.4,0.3l0,0c-0.6,0.4-1.3,0.7-2.1,0.7h-0.1
			c-0.1,0-0.3,0-0.4,0c-0.6-1.4-1.8-2.4-3.2-2.8c-0.1-0.3-0.1-0.6-0.2-1c-0.1-2.2,1.6-4,3.7-4.1h0.1c0.8,0,1.5,0.2,2.1,0.6
			c0.2,0.1,0.4,0.3,0.6,0.5c0.2,0.2,0.3,0.4,0.5,0.6c0.1,0.2,0.3,0.4,0.4,0.6c0.1,0.2,0.2,0.5,0.2,0.7
			C900.1,3.3,900.2,3.5,900.2,3.8z"/>
		<path class="st9" d="M897.7,19v4.4c0,0.9-0.7,1.6-1.6,1.6h-9.3c-0.9,0-1.6-0.7-1.6-1.6V19c0-2.4,1.4-4.4,3.4-5.2
			c0.1,0.1,0.3,0.2,0.4,0.3c0.7,0.5,1.6,0.7,2.4,0.7h0.2c0.9,0,1.8-0.3,2.6-0.9c0,0,0.1,0,0.1-0.1C896.3,14.6,897.7,16.6,897.7,19z"
			/>
		<path class="st9" d="M895.3,9.7c0,1.2-0.4,2.2-1.2,3c-0.1,0.1-0.3,0.3-0.5,0.4c-0.2,0.1-0.4,0.2-0.6,0.3c-0.5,0.2-1,0.4-1.5,0.4
			h-0.1c-0.6,0-1.1-0.1-1.6-0.4c-0.1,0-0.2-0.1-0.3-0.2c-0.3-0.2-0.5-0.3-0.7-0.6c-0.7-0.7-1.1-1.6-1.1-2.6c0-0.4,0-0.9,0.2-1.3
			c0.1-0.5,0.4-0.9,0.7-1.3s0.8-0.8,1.3-1.1c0.5-0.3,1-0.4,1.6-0.4c0.3,0,0.6,0,0.9,0.1c0.2,0,0.5,0.1,0.7,0.2
			c0.1,0,0.2,0.1,0.3,0.2l0,0l0,0c0.2,0.1,0.4,0.2,0.6,0.4c0.1,0.1,0.2,0.1,0.3,0.2s0.1,0.1,0.2,0.2c0,0.1,0.1,0.1,0.2,0.2l0,0l0,0
			l0,0c0.1,0.1,0.2,0.3,0.3,0.5s0.2,0.4,0.3,0.7c0,0.1,0,0.1,0,0.2C895.3,9,895.3,9.3,895.3,9.7z"/>
	</g>
	<path class="st0" d="M985,3.1v18.8c0,1.7-1.4,3.1-3.1,3.1h-4.7v-8.6h2.3l1.6-3.9h-3.9V9.4c0-0.9,0.7-0.8,1.6-0.8h1.6V4.7h-3.1
		c-2.6,0-4.7,2.1-4.7,4.7v3.1h-3.1v3.9h3.1V25h-9.4c-1.7,0-3.1-1.4-3.1-3.1V3.1c0-1.7,1.4-3.1,3.1-3.1H982C983.6,0,985,1.4,985,3.1z
		"/>
	<g>
		<path class="st4" d="M560.2,1.2c-0.1-0.1-0.3,0.1-0.2,0.2c0.9,1.4,4.4,5.7,11.5,5.8c5.1,0.1,9.9-3,11.2-4.7
			c0.1-0.2-0.1-0.4-0.3-0.3c-4.3,1.9-5,2.6-10.3,2.8C566.6,5.1,562.4,2.1,560.2,1.2z"/>
		<path class="st4" d="M580.7,2.1C580.6,2.2,580.6,2.1,580.7,2.1C581,1.5,582-0.3,584,0c0.4,0.1,0.8,0.4,0.9,0.9
			c0.2,0.6-0.1,1.5-0.3,1.9c-0.4,0.8-1,1.2-1.5,1.5c-0.1,0-0.1,0-0.1-0.1c0.4-0.7,1.1-2.1,0.7-2.7C583.2,0.7,581.2,1.8,580.7,2.1z"
			/>
	</g>
	<path d="M104,95L104,95v-0.3c0-0.1,0-0.1,0-0.1c0-0.2-0.1-0.4-0.2-0.6c-0.4-1.2-1.5-2-2.8-2c-0.7,0-1.3,0.2-1.7,0.5
		c0-0.2-0.1-0.3-0.1-0.5c-0.4-1.2-1.5-2-2.8-2c-0.6,0-1.2,0.2-1.7,0.5v-7.4c0-1.5-1-2.7-2.3-3c-0.9-0.2-1.8,0-2.5,0.6
		s-1.1,1.4-1.1,2.3v8.3c-0.1-0.1-0.3-0.3-0.5-0.3c-0.9-0.5-1.9-0.3-2.8,0.3c-0.9,0.6-1.4,1.7-1.4,2.9v4.4l-1,0.6c0,0,0,0-0.1,0
		c-2,0.9-2.9,2.5-2.9,5.2v2c0,5.4,3.5,8,4.7,8.7v1.9c0,1.7,1.3,3,3,3h11.7c1.5,0,2.7-1.6,2.7-3v-2.1c2-2.7,2-3.3,2-8.6v-6.9v-0.1V99
		l0,0v-4H104z M94.7,93c0-0.9,0.7-1.7,1.7-1.7c0.9,0,1.7,0.7,1.7,1.7v2v4v1.3c0,0.9-0.7,1.7-1.7,1.7c-0.9,0-1.7-0.7-1.7-1.7V93z
		 M99.3,95c0-0.9,0.7-1.7,1.7-1.7c0.1,0,0.1,0,0.2,0c0.3,0,0.6,0.1,0.8,0.3l0,0l0,0c0.4,0.3,0.6,0.8,0.6,1.3v4
		c0,0.9-0.7,1.7-1.7,1.7s-1.7-0.7-1.7-1.7L99.3,95L99.3,95z M85.3,94.1c0-0.7,0.3-1.4,0.9-1.8c0.3-0.2,0.5-0.3,0.8-0.3
		c0.2,0,0.4,0.1,0.5,0.1c0.7,0.3,1.1,1.1,1.1,1.9v0.7c-0.4,0.2-0.8,0.5-1.2,1.1c-0.5,0.6-1.2,1.3-2.1,1.9
		C85.3,97.7,85.3,94.1,85.3,94.1z M101,114h-1c-0.4,0-0.7,0.3-0.7,0.7c0,0.4,0.3,0.7,0.7,0.7h0.7v1.7c0,0.7-0.6,1.7-1.3,1.7H87.7
		c-0.9,0-1.7-0.7-1.7-1.7v-1.4c0.7,0.2,1.4,0.4,2.1,0.4c0.5,0,1.1-0.1,1.6-0.3c1-0.3,1.7-1.1,2.2-2.1c0.1-0.3,0-0.7-0.3-0.9
		c-0.3-0.1-0.7,0-0.9,0.3c-0.3,0.7-0.8,1.1-1.5,1.4c-1.1,0.4-2.5,0.1-3.5-0.3c0,0-0.1,0-0.1-0.1c-0.2-0.1-4.3-2.3-4.3-7.7v-2
		c0-2.2,0.7-3.4,2.3-4.1l0,0c0,0,0,0,0.1,0c2.1-1.1,3.9-2.5,4.9-3.7c0.5-0.5,1.1-1.1,1.7-0.7c0.7,0.5,1,1.8,0.6,2.5
		c-1.2,2.1-4.2,4.5-5.8,4.9c-0.3,0.1-0.5,0.5-0.5,0.8c0.1,0.3,0.4,0.5,0.7,0.5c0.1,0,0.1,0,0.1,0c0.9-0.3,2.1-0.9,3.3-1.9v0.7
		c0,0.4,0.3,0.7,0.7,0.7c0.4,0,0.7-0.3,0.7-0.7v-1.9c0.8-0.8,1.5-1.6,2-2.4c0.7-1.3,0.3-3.4-1-4.3c-0.2-0.1-0.5-0.3-1-0.4V94v-0.3
		V83c0-0.5,0.2-1,0.6-1.3s0.9-0.5,1.4-0.3c0.8,0.2,1.3,0.9,1.3,1.7V93v7.3c0,1.7,1.3,3,3,3c1.3,0,2.4-0.8,2.8-2
		c0.5,0.4,1.1,0.6,1.8,0.6c0.6,0,1.2-0.2,1.7-0.5v4.8C102.7,111.5,102.7,111.7,101,114z"/>
	<path class="st4" d="M104,175L104,175v-0.3c0-0.1,0-0.1,0-0.1c0-0.2-0.1-0.4-0.2-0.6c-0.4-1.2-1.5-2-2.8-2c-0.7,0-1.3,0.2-1.7,0.5
		c0-0.2-0.1-0.3-0.1-0.5c-0.4-1.2-1.5-2-2.8-2c-0.6,0-1.2,0.2-1.7,0.5v-7.4c0-1.5-1-2.7-2.3-3c-0.9-0.2-1.8,0-2.5,0.6
		s-1.1,1.4-1.1,2.3v8.3c-0.1-0.1-0.3-0.3-0.5-0.3c-0.9-0.5-1.9-0.3-2.8,0.3s-1.4,1.7-1.4,2.9v4.4l-1,0.6c0,0,0,0-0.1,0
		c-2,0.9-2.9,2.5-2.9,5.2v2c0,5.4,3.5,8,4.7,8.7v1.9c0,1.7,1.3,3,3,3h11.7c1.5,0,2.7-1.6,2.7-3v-2.1c2-2.7,2-3.3,2-8.6v-6.9v-0.1
		V179l0,0v-4H104z M94.7,173c0-0.9,0.7-1.7,1.7-1.7c0.9,0,1.7,0.7,1.7,1.7v2v4v1.3c0,0.9-0.7,1.7-1.7,1.7c-0.9,0-1.7-0.7-1.7-1.7
		V173z M99.3,175c0-0.9,0.7-1.7,1.7-1.7c0.1,0,0.1,0,0.2,0c0.3,0,0.6,0.1,0.8,0.3l0,0l0,0c0.4,0.3,0.6,0.8,0.6,1.3v4
		c0,0.9-0.7,1.7-1.7,1.7s-1.7-0.7-1.7-1.7L99.3,175L99.3,175z M85.3,174.1c0-0.7,0.3-1.4,0.9-1.8c0.3-0.2,0.5-0.3,0.8-0.3
		c0.2,0,0.4,0.1,0.5,0.1c0.7,0.3,1.1,1.1,1.1,1.9v0.7c-0.4,0.2-0.8,0.5-1.2,1.1c-0.5,0.6-1.2,1.3-2.1,1.9
		C85.3,177.7,85.3,174.1,85.3,174.1z M101,194h-1c-0.4,0-0.7,0.3-0.7,0.7s0.3,0.7,0.7,0.7h0.7v1.7c0,0.7-0.6,1.7-1.3,1.7H87.7
		c-0.9,0-1.7-0.7-1.7-1.7v-1.4c0.7,0.2,1.4,0.4,2.1,0.4c0.5,0,1.1-0.1,1.6-0.3c1-0.3,1.7-1.1,2.2-2.1c0.1-0.3,0-0.7-0.3-0.9
		c-0.3-0.1-0.7,0-0.9,0.3c-0.3,0.7-0.8,1.1-1.5,1.4c-1.1,0.4-2.5,0.1-3.5-0.3c0,0-0.1,0-0.1-0.1c-0.2-0.1-4.3-2.3-4.3-7.7v-2
		c0-2.2,0.7-3.4,2.3-4.1l0,0c0,0,0,0,0.1,0c2.1-1.1,3.9-2.5,4.9-3.7c0.5-0.5,1.1-1.1,1.7-0.7c0.7,0.5,1,1.8,0.6,2.5
		c-1.2,2.1-4.2,4.5-5.8,4.9c-0.3,0.1-0.5,0.5-0.5,0.8c0.1,0.3,0.4,0.5,0.7,0.5c0.1,0,0.1,0,0.1,0c0.9-0.3,2.1-0.9,3.3-1.9v0.7
		c0,0.4,0.3,0.7,0.7,0.7c0.4,0,0.7-0.3,0.7-0.7v-1.9c0.8-0.8,1.5-1.6,2-2.4c0.7-1.3,0.3-3.4-1-4.3c-0.2-0.1-0.5-0.3-1-0.4V174v-0.3
		V163c0-0.5,0.2-1,0.6-1.3s0.9-0.5,1.4-0.3c0.8,0.2,1.3,0.9,1.3,1.7v9.9v7.3c0,1.7,1.3,3,3,3c1.3,0,2.4-0.8,2.8-2
		c0.5,0.4,1.1,0.6,1.8,0.6c0.6,0,1.2-0.2,1.7-0.5v4.8C102.7,191.5,102.7,191.7,101,194z"/>
	<g id="Layer_5">
	</g>
	<g>
		<g>
			<path class="st10" d="M185,86.9c0-0.2,0-0.5,0-0.8c0-0.5,0-1.1-0.1-1.6s-0.3-1.1-0.5-1.6s-0.6-0.9-1-1.3s-0.8-0.7-1.3-1
				s-1-0.4-1.6-0.5c-0.5-0.1-1.1-0.1-1.6-0.1c-0.3,0-0.5,0-0.8,0s-0.6,0-0.9,0h-9.4c-0.3,0-0.6,0-0.9,0c-0.2,0-0.5,0-0.8,0
				c-0.5,0-1.1,0-1.6,0.1s-1.1,0.3-1.6,0.5s-0.9,0.6-1.3,1c-0.4,0.4-0.7,0.8-1,1.3s-0.4,1-0.5,1.6c-0.1,0.5-0.1,1.1-0.1,1.6
				c0,0.2,0,0.5,0,0.8s0,0.6,0,0.9v9.4c0,0.3,0,0.6,0,0.9s0,0.5,0,0.8c0,0.5,0,1.1,0.1,1.6s0.3,1.1,0.5,1.6s0.6,0.9,1,1.3
				s0.8,0.7,1.3,1s1,0.4,1.6,0.5c0.5,0.1,1.1,0.1,1.6,0.1c0.2,0,0.5,0,0.8,0s0.6,0,0.9,0h9.4c0.3,0,0.6,0,0.9,0c0.2,0,0.5,0,0.8,0
				c0.5,0,1.1,0,1.6-0.1s1.1-0.3,1.6-0.5s0.9-0.6,1.3-1c0.4-0.4,0.7-0.8,1-1.3s0.4-1,0.5-1.6c0.1-0.5,0.1-1.1,0.1-1.6
				c0-0.2,0-0.5,0-0.8s0-0.6,0-0.9v-9.4C185,87.5,185,87.2,185,86.9z M178.3,96.3c0,0.3,0,0.6-0.1,0.9s-0.2,0.6-0.4,0.9
				s-0.4,0.5-0.7,0.6c-0.3,0.2-0.6,0.3-0.9,0.3c-0.6,0.1-1,0.1-1.3,0.1c-0.4-0.1-0.7-0.2-0.9-0.5c-0.4-0.3-0.6-0.8-0.6-1.2
				c-0.1-0.5,0.1-1.1,0.5-1.6c0.2-0.2,0.5-0.4,0.8-0.5c0.4-0.1,0.8-0.2,1.4-0.3c0.2,0,0.3-0.1,0.5-0.1s0.4-0.1,0.5-0.3
				c0.1-0.2,0.1-0.4,0.1-0.6v-5.5c0-0.4-0.2-0.5-0.6-0.5c-0.3,0.1-6.5,1.3-6.5,1.3c-0.3,0.1-0.5,0.2-0.5,0.6V98c0,0.3,0,0.6-0.1,0.9
				s-0.2,0.6-0.4,0.9s-0.4,0.5-0.7,0.6c-0.3,0.2-0.6,0.3-0.9,0.3c-0.6,0.1-1,0.1-1.3,0.1c-0.4-0.1-0.7-0.2-0.9-0.5
				c-0.4-0.3-0.6-0.8-0.6-1.2c-0.1-0.5,0.1-1.1,0.5-1.6c0.2-0.2,0.5-0.4,0.8-0.5c0.4-0.1,0.8-0.2,1.4-0.3c0.2,0,0.3-0.1,0.5-0.1
				s0.4-0.1,0.5-0.3c0.1-0.2,0.2-0.4,0.2-0.6c0-1.7,0-9.3,0-9.3c0-0.1,0-0.2,0-0.2c0-0.2,0.1-0.4,0.2-0.5c0.1-0.1,0.3-0.2,0.5-0.2
				l0,0l7.4-1.5c0.1,0,0.6-0.1,0.7-0.1c0.4,0,0.6,0.2,0.6,0.7L178.3,96.3L178.3,96.3z"/>
		</g>
	</g>
	<g>
		<rect x="240" y="80" class="st11" width="68" height="68"/>
	</g>
	<g>
		<line class="st12" x1="263.5" y1="114" x2="284.5" y2="114"/>
		<polyline class="st12" points="274.5,124 284.5,114 274.5,104 		"/>
	</g>
	<path class="st9" d="M345,81.5l-1.5-1.5l-2.5,3l-7.6,7.5c-1.7-1.7-2.4-2-3.4-1.8c-2.1,0.5-2.1,3.1-4.9,4.1c-1.7,0.6-8.8,3-2.7,9.2
		l0.6,0.6c6.2,6.2,8.6-1,9.2-2.7c0.9-2.8,3.5-2.9,4.1-4.9c0.3-1-0.1-1.6-1.8-3.4L342,84L345,81.5z M328.9,99.6l-1.7-1.7l-1.7-1.7
		l0.6-0.6c0.6,0.6,1.1,0.6,1.1,0.6L328,97l0.9,0.9c0,0-0.1,0.5,0.6,1.1L328.9,99.6z M331.9,95.5c-0.7,0.7-1.7,0.7-2.4,0
		c-0.7-0.7-0.7-1.7,0-2.4c0.7-0.7,1.7-0.7,2.4,0C332.6,93.7,332.6,94.8,331.9,95.5z"/>
	
		<image style="overflow:visible;enable-background:new    ;" width="852" height="598" xlink:href="../../../../../../../../../Users/jonathanrixhon/Pictures/Screenshots/Capture d’écran 2021-06-05 à 16.17.12.png"  transform="matrix(0.2031 0 0 0.2031 -1291 -767)">
	</image>
	<g>
		<path class="st4" d="M492.5,80c-6.9,0-12.5,5.6-12.5,12.5s5.6,12.5,12.5,12.5S505,99.4,505,92.5S499.4,80,492.5,80z M492.5,99
			c-3.6,0-6.5-2.9-6.5-6.5s2.9-6.5,6.5-6.5s6.5,2.9,6.5,6.5S496.1,99,492.5,99z"/>
		<path class="st4" d="M492.5,86.5c-3.3,0-6,2.7-6,6s2.7,6,6,6s6-2.7,6-6S495.8,86.5,492.5,86.5z M490.2,95.8v-6.5l5.5,3.1
			L490.2,95.8z"/>
	</g>
	<polyline class="st13" points="569,81 565,85 561,81 	"/>
	<g>
		<line class="st14" x1="641" y1="81" x2="667" y2="81"/>
		<line class="st14" x1="641" y1="91" x2="667" y2="91"/>
		<line class="st14" x1="641" y1="101" x2="667" y2="101"/>
	</g>
	<g>
		<line class="st13" x1="721" y1="81" x2="738" y2="98"/>
		<line class="st13" x1="738" y1="81" x2="721" y2="98"/>
	</g>
	<g>
		<g>
			<path class="st9" d="M823,91.5c-1.2,1.2-2.8,1.9-4.4,1.9l-7.1-7.1c0.1-1.6,0.7-3.2,1.9-4.4c2.6-2.6,6.9-2.6,9.5,0
				C825.7,84.6,825.7,88.8,823,91.5z"/>
		</g>
		<path class="st9" d="M817.5,93.8l-12.9,10.9c-0.5,0.4-1.2,0.4-1.7-0.1l-2.6-2.6c-0.5-0.5-0.5-1.2-0.1-1.7l10.9-12.9L817.5,93.8z"
			/>
	</g>
	<g>
		<path class="st9" d="M415.3,100.6l-5-17.9c-1.2,0.6-2.4,1.3-3.5,2.1l7.3,16.5C414.5,101.1,414.9,100.9,415.3,100.6z"/>
		<path class="st9" d="M418,99.6l-2.5-18.8c-1.3,0.3-2.5,0.8-3.8,1.3l5,17.9C417.1,99.8,417.5,99.7,418,99.6z"/>
		<path class="st9" d="M420.8,99.1V80c-1.3,0-2.6,0.2-3.9,0.5l2.5,18.8C419.9,99.2,420.3,99.1,420.8,99.1z"/>
		<path class="st9" d="M423.6,99.2l2.5-18.8c-1.3-0.2-2.6-0.4-3.9-0.5V99C422.7,99.1,423.1,99.2,423.6,99.2z"/>
		<path class="st9" d="M426.3,100l5-17.9c-1.2-0.5-2.5-1-3.8-1.3L425,99.6C425.5,99.7,425.9,99.8,426.3,100z"/>
		<path class="st9" d="M428.9,101.4l7.3-16.5c-1.1-0.8-2.3-1.5-3.5-2.1l-5,17.9C428.1,100.9,428.5,101.1,428.9,101.4z"/>
		<polygon class="st9" points="406.2,84.9 400,87.8 401.1,90.2 406.2,87.7 407.1,89.6 401.9,92.1 402,92.3 407.2,89.9 408,91.7 
			402.9,94.2 403,94.4 408.1,92 409,93.8 403.8,96.3 404,96.5 409.1,94.1 409.9,95.9 404.8,98.4 404.9,98.7 410.1,96.2 410.9,98 
			405.8,100.5 405.9,100.8 411,98.3 411.9,100.2 406.7,102.6 407.8,105 414,102 		"/>
		<polygon class="st9" points="407.4,90.4 403.8,92.1 403.2,90.8 406.8,89.1 		"/>
		<polygon class="st9" points="408.4,92.5 404.8,94.2 404.2,92.9 407.8,91.2 		"/>
		<polygon class="st9" points="409.3,94.6 405.7,96.3 405.1,95 408.7,93.3 		"/>
		<polygon class="st9" points="410.3,96.7 406.7,98.4 406.1,97.1 409.7,95.4 		"/>
		<polygon class="st9" points="411.3,98.8 407.7,100.6 407.1,99.2 410.7,97.5 		"/>
		<path class="st9" d="M436.8,84.9L429,102l6.2,3l7.8-17.2L436.8,84.9z M436.3,88.8c0.2-0.4,0.7-0.6,1.1-0.4s0.6,0.7,0.4,1.2
			c-0.2,0.4-0.7,0.6-1.1,0.4S436.1,89.2,436.3,88.8z M434.7,92.2c0.2-0.4,0.7-0.6,1.1-0.4s0.6,0.7,0.4,1.2c-0.2,0.4-0.7,0.6-1.1,0.4
			S434.5,92.7,434.7,92.2z M433.2,99.8c-0.2,0.4-0.7,0.6-1.1,0.4s-0.6-0.7-0.4-1.2s0.7-0.6,1.1-0.4S433.4,99.4,433.2,99.8z
			 M433.6,96.8c-0.4-0.2-0.6-0.7-0.4-1.2c0.2-0.4,0.7-0.6,1.1-0.4s0.6,0.7,0.4,1.2C434.5,96.8,434,97,433.6,96.8z M435.7,101.1
			c-0.2,0.4-0.7,0.6-1.1,0.4s-0.6-0.7-0.4-1.2c0.2-0.4,0.7-0.6,1.1-0.4S435.9,100.6,435.7,101.1z M437.3,97.6
			c-0.2,0.4-0.7,0.6-1.1,0.4s-0.6-0.7-0.4-1.2c0.2-0.4,0.7-0.6,1.1-0.4C437.3,96.7,437.5,97.2,437.3,97.6z M438.9,94.2
			c-0.2,0.4-0.7,0.6-1.1,0.4s-0.6-0.7-0.4-1.2s0.7-0.6,1.1-0.4S439.1,93.8,438.9,94.2z M439.3,91.2c-0.4-0.2-0.6-0.7-0.4-1.2
			s0.7-0.6,1.1-0.4s0.6,0.7,0.4,1.2C440.2,91.2,439.7,91.4,439.3,91.2z"/>
	</g>
	<path class="st9" d="M893.4,93.3l5.9-5.9l0.2,0.2l5.5-4.7l-2.9-2.9l-4.7,5.5l0.2,0.2l-5.9,5.9c-2.8-1.4-7.6,0.1-9.9,2.4
		c-2.5,2.5-2.5,6.6,0,9.2c2.5,2.5,6.6,2.5,9.2,0C893.3,100.9,894.9,96.1,893.4,93.3z M889.6,95.4c0.7,0.7,0.7,1.8,0,2.5
		s-1.8,0.7-2.5,0s-0.7-1.8,0-2.5C887.8,94.7,888.9,94.7,889.6,95.4z M884.5,100.5l-2-2l0.9-0.9c0.7,0.7,1.4,0.5,1.4,0.5l1,1l1,1
		c0,0-0.2,0.6,0.5,1.4l-0.9,0.9L884.5,100.5z"/>
	<g>
		<g>
			<line class="st15" x1="34.8" y1="255" x2="4.2" y2="245.2"/>
			<line class="st15" x1="16.8" y1="256.6" x2="43.8" y2="242"/>
		</g>
		<line class="st15" x1="2.1" y1="262.9" x2="45.9" y2="262.9"/>
		<line class="st15" x1="2.1" y1="290" x2="45.9" y2="290"/>
		<g>
			<path class="st0" d="M1,285.3c-0.3,0-0.5-0.2-0.5-0.5V268c0-0.3,0.2-0.5,0.5-0.5h46c0.3,0,0.5,0.2,0.5,0.5v16.8
				c0,0.3-0.2,0.5-0.5,0.5H1z"/>
			<path class="st0" d="M47,268v16.8H1V268H47 M47,267H1c-0.6,0-1,0.4-1,1v16.8c0,0.6,0.4,1,1,1h46c0.6,0,1-0.4,1-1V268
				C48,267.5,47.6,267,47,267L47,267z"/>
		</g>
	</g>
	<g>
		<g>
			<path class="st0" d="M414.1,260.8c0.1,2.4,0.9,4.6,2.4,6.3c-4.4,2.3-7.5,7-7.5,12.4v1.3h-4.7c-2.4,0-4.3-2-4.3-4.4v-9.2
				c0-5.2,2.9-9.6,7.2-11.7c0.5,0.5,1.1,0.9,1.7,1.3c1.5,1,3.3,1.5,5.1,1.5h0.2C414.1,259.2,414,260,414.1,260.8z"/>
		</g>
		<g>
			<path class="st0" d="M448,267.4v9.2c0,2.4-1.9,4.4-4.3,4.4H439v-1.3c0-5.4-3-10.1-7.4-12.5c1.6-1.9,2.5-4.4,2.5-7.1
				c0-0.6-0.1-1.1-0.2-1.6h0.6c1.9-0.1,3.8-0.7,5.4-1.9c0.4-0.3,0.7-0.5,1-0.9C445.1,257.8,448,262.3,448,267.4z"/>
		</g>
		<g>
			<path class="st0" d="M422.1,247.9c0,0.9-0.1,1.8-0.3,2.6l0,0c-1.9,0.5-3.6,1.5-5,3c-0.8,0.8-1.4,1.8-1.8,2.8c-0.2,0-0.4,0-0.5,0
				c-1.6,0.1-3.1-0.4-4.4-1.2c-2.2-1.4-3.8-3.9-3.9-6.7c-0.2-4.5,3.3-8.3,7.7-8.5C418.2,239.9,421.9,243.4,422.1,247.9z"/>
		</g>
		<g>
			<path class="st0" d="M429,254.1c-0.4-0.3-0.8-0.6-1.2-0.8l0,0C428.2,253.5,428.7,253.8,429,254.1z"/>
		</g>
		<g>
			<path class="st0" d="M430.3,255.4L430.3,255.4L430.3,255.4c-0.1-0.2-0.3-0.3-0.4-0.4C430.1,255.2,430.2,255.3,430.3,255.4z"/>
		</g>
		<g>
			<path class="st0" d="M442.1,248c0.1,2.5-0.9,4.8-2.6,6.3c-0.2,0.2-0.5,0.4-0.7,0.6l0,0c-1.2,0.9-2.7,1.4-4.3,1.5h-0.3
				c-0.3,0-0.6,0-0.9-0.1c-1.2-2.9-3.7-5.1-6.8-5.8c-0.2-0.6-0.3-1.3-0.4-2c-0.1-4.5,3.3-8.3,7.7-8.5h0.3c1.6,0,3.1,0.5,4.3,1.3
				c0.4,0.3,0.8,0.6,1.2,1c0.4,0.4,0.7,0.8,1,1.2s0.5,0.9,0.8,1.3c0.2,0.5,0.4,1,0.5,1.5C442,246.9,442.1,247.4,442.1,248z"/>
		</g>
		<g>
			<path class="st0" d="M437,279.7v9.2c0,1.9-1.5,3.3-3.3,3.3l-19.4-0.1c-1.8,0-3.3-1.5-3.3-3.4v-9.2c0-4.9,2.9-9.1,7.1-10.9
				c0.3,0.2,0.6,0.4,0.9,0.6c1.5,1,3.3,1.5,5.1,1.5h0.4c1.9-0.1,3.8-0.7,5.4-1.9c0.1,0,0.1-0.1,0.2-0.1
				C434.1,270.5,437,274.8,437,279.7z"/>
		</g>
		<g>
			<path class="st0" d="M432,260.2c0.1,2.4-0.9,4.6-2.4,6.2c-0.3,0.3-0.6,0.6-1,0.8c-0.4,0.3-0.8,0.5-1.2,0.7c-1,0.5-2,0.8-3.1,0.8
				H424c-1.2,0-2.4-0.3-3.4-0.8c-0.2-0.1-0.5-0.2-0.7-0.4c-0.5-0.3-1-0.7-1.5-1.2c-1.4-1.4-2.3-3.4-2.4-5.5c0-0.9,0.1-1.8,0.3-2.7
				c0.3-1,0.8-1.9,1.4-2.7c0.7-0.9,1.6-1.7,2.6-2.2c1-0.6,2.2-0.9,3.4-0.9c0.6,0,1.3,0,1.9,0.1c0.5,0.1,1,0.3,1.5,0.5
				c0.2,0.1,0.5,0.2,0.7,0.3l0,0l0,0c0.4,0.2,0.9,0.5,1.2,0.8c0.2,0.1,0.4,0.3,0.6,0.5c0.1,0.1,0.3,0.3,0.4,0.4
				c0.1,0.1,0.2,0.3,0.3,0.4l0,0l0,0l0,0c0.2,0.3,0.4,0.6,0.6,0.9c0.3,0.4,0.5,0.9,0.6,1.4c0,0.1,0.1,0.2,0.1,0.4
				C431.9,258.8,432,259.5,432,260.2z"/>
		</g>
	</g>
	<g>
		<path class="st0" d="M128,242.9l-2.9-2.9l-4.8,5.8l-14.5,14.4c-3.3-3.2-4.6-3.9-6.4-3.4c-4,1-4.1,6-9.5,7.8
			c-3.2,1.1-17,5.7-5.1,17.6l1.1,1.1c11.9,11.9,16.5-1.9,17.6-5.1c1.8-5.4,6.8-5.5,7.8-9.5c0.5-1.9-0.1-3.1-3.4-6.4l14.3-14.5
			L128,242.9z M97,277.5l-3.3-3.3l-3.3-3.3l1.1-1.1c1.2,1.2,2.1,1.1,2.1,1.1l1.7,1.7l1.7,1.7c0,0-0.1,0.9,1.1,2.1L97,277.5z
			 M102.9,269.7c-1.3,1.3-3.3,1.3-4.6,0c-1.3-1.3-1.3-3.3,0-4.6c1.3-1.3,3.3-1.3,4.6,0S104.2,268.4,102.9,269.7z"/>
	</g>
	<g>
		<g>
			<path class="st0" d="M284.2,262c-2.3,2.3-5.3,3.6-8.4,3.7l-13.6-13.6c0.2-3.1,1.4-6.1,3.7-8.4c5-5,13.2-5,18.2,0
				C289.3,248.8,289.3,257,284.2,262z"/>
		</g>
		<g>
			<path class="st0" d="M273.6,266.6l-24.7,20.9c-0.9,0.8-2.3,0.7-3.2-0.1l-5-5c-0.9-0.9-0.9-2.3-0.1-3.2l20.9-24.7L273.6,266.6z"/>
		</g>
	</g>
	<g>
		<g>
			<path class="st0" d="M188.5,278.8l-9.3-33.7c-2.3,1.2-4.5,2.5-6.6,4l13.7,31.1C186.9,279.7,187.7,279.2,188.5,278.8z"/>
		</g>
		<g>
			<path class="st0" d="M193.5,276.8l-4.7-35.4c-2.4,0.6-4.7,1.5-7,2.5l9.3,33.7C191.8,277.3,192.6,277,193.5,276.8z"/>
		</g>
		<g>
			<path class="st0" d="M198.6,275.9V240c-2.5,0.1-4.9,0.4-7.2,0.8l4.7,35.3C197,276,197.8,275.9,198.6,275.9z"/>
		</g>
		<g>
			<path class="st0" d="M203.9,276.2l4.7-35.3c-2.4-0.5-4.8-0.8-7.2-0.8V276C202.2,275.9,203,276,203.9,276.2z"/>
		</g>
		<g>
			<path class="st0" d="M209,277.6l9.3-33.7c-2.3-1-4.6-1.9-7-2.5l-4.7,35.4C207.4,277,208.2,277.3,209,277.6z"/>
		</g>
		<g>
			<path class="st0" d="M213.8,280.2l13.7-31.1c-2.1-1.5-4.3-2.8-6.6-4l-9.3,33.7C212.3,279.2,213.1,279.7,213.8,280.2z"/>
		</g>
		<g>
			<polygon class="st0" points="171.5,249.2 160,254.7 162,259.2 171.6,254.6 173.1,258 163.6,262.7 163.8,263.2 173.4,258.5 
				174.9,262 165.4,266.6 165.6,267.1 175.2,262.5 176.7,266 167.1,270.6 167.4,271.1 176.9,266.5 178.5,270 168.9,274.6 
				169.1,275.1 178.7,270.4 180.3,273.9 170.7,278.6 170.9,279.1 180.5,274.4 182.1,277.9 172.5,282.5 174.5,287 186,281.4 			"/>
		</g>
		<g>
			<polygon class="st0" points="173.8,259.5 167.1,262.8 166,260.3 172.7,257 			"/>
		</g>
		<g>
			<polygon class="st0" points="175.6,263.5 168.9,266.7 167.8,264.3 174.5,261 			"/>
		</g>
		<g>
			<polygon class="st0" points="177.4,267.5 170.7,270.7 169.6,268.2 176.3,265 			"/>
		</g>
		<g>
			<polygon class="st0" points="179.2,271.4 172.5,274.7 171.4,272.2 178.1,269 			"/>
		</g>
		<g>
			<polygon class="st0" points="181,275.4 174.3,278.7 173.1,276.2 179.8,272.9 			"/>
		</g>
		<g>
			<path class="st0" d="M228.5,249.2L214,281.4l11.5,5.6l14.5-32.3L228.5,249.2z M227.5,256.5c0.4-0.8,1.3-1.2,2.1-0.8
				c0.8,0.4,1.1,1.4,0.8,2.2c-0.4,0.8-1.3,1.2-2.1,0.8S227.2,257.4,227.5,256.5z M224.6,263c0.4-0.8,1.3-1.2,2.1-0.8
				s1.1,1.4,0.8,2.2c-0.4,0.8-1.3,1.2-2.1,0.8S224.3,263.8,224.6,263z M221.7,277.3c-0.4,0.8-1.3,1.2-2.1,0.8
				c-0.8-0.4-1.1-1.4-0.8-2.2c0.4-0.8,1.3-1.2,2.1-0.8S222.1,276.5,221.7,277.3z M222.5,271.6c-0.8-0.4-1.1-1.4-0.8-2.2
				c0.4-0.8,1.3-1.2,2.1-0.8c0.8,0.4,1.1,1.4,0.8,2.2C224.2,271.7,223.3,272,222.5,271.6z M226.5,279.6c-0.4,0.8-1.3,1.2-2.1,0.8
				c-0.8-0.4-1.1-1.4-0.8-2.2c0.4-0.8,1.3-1.2,2.1-0.8C226.5,277.8,226.9,278.8,226.5,279.6z M229.4,273.2c-0.4,0.8-1.3,1.2-2.1,0.8
				c-0.8-0.4-1.1-1.4-0.8-2.2c0.4-0.8,1.3-1.2,2.1-0.8S229.8,272.3,229.4,273.2z M232.3,266.7c-0.4,0.8-1.3,1.2-2.1,0.8
				c-0.8-0.4-1.1-1.4-0.8-2.2c0.4-0.8,1.3-1.2,2.1-0.8C232.3,264.9,232.7,265.9,232.3,266.7z M233.1,261c-0.8-0.4-1.1-1.4-0.8-2.2
				c0.4-0.8,1.3-1.2,2.1-0.8c0.8,0.4,1.1,1.4,0.8,2.2C234.8,261.1,233.9,261.4,233.1,261z"/>
		</g>
	</g>
	<g>
		<path class="st0" d="M345.8,265.4l11.3-11.3l0.4,0.4l10.6-8.9l-5.6-5.6l-8.9,10.6l0.4,0.4l-11.3,11.3c-5.4-2.8-14.6,0.2-18.9,4.5
			c-4.9,4.9-4.9,12.7,0,17.6s12.7,4.9,17.6,0C345.5,280,348.5,270.9,345.8,265.4z M338.4,269.6c1.3,1.3,1.3,3.5,0,4.8
			s-3.5,1.3-4.8,0s-1.3-3.5,0-4.8C335,268.2,337.1,268.2,338.4,269.6z M328.7,279.3l-3.8-3.8l1.8-1.7c1.4,1.4,2.6,1,2.6,1l1.9,1.9
			l1.9,1.9c0,0-0.4,1.2,1,2.6l-1.7,1.8L328.7,279.3z"/>
	</g>
	<path d="M-512.1-331.8c-9.9-3.2-81.6-19.8-81.6-19.8c-2.3-0.6-4.8,0.3-6.2,2.1c0,0-2.5,12-10,12.5l-251.5-3.7
		c-0.1-0.1-0.2-0.2-0.2-0.3c-12-14.3,8.2-23.8,26.8-23.8c15,0,29.1-17.8,6.2-25.1c-43.2-13.9-63.2,7.8-101.4,7.8
		c-21.1,0-57.9-24.2-79.1-24.2c-77.4,0-61,68.6-61,113.9s54.2,60.8,96.6,37.5s34.6-13.8,66-4.9s45.1-3.9,45.1-13.6
		s-32.1-7.2-32.1-26.1c0-5.1,4.1-8.5,9.6-11.3l275-4.1c14.5-3.5,20.5,6.5,24.4,11.5c30.9,0,40.6-10.4,50.9-8c1,0.2,1.9,0.9,2.4,1.8
		c1.7,2.7,4.8,6,8.2,7.7c12.8,6.4,24.5-5.4,24.5-14C-499.5-323.6-502.2-328.5-512.1-331.8z M-1033.5-308.6c0,1.5-1.2,2.8-2.8,2.8
		h-17.4c-1.5,0-2.8-1.2-2.8-2.8V-342c0-1.5,1.2-2.8,2.8-2.8h17.4c1.5,0,2.8,1.2,2.8,2.8V-308.6z M-955.5-323.6c0,1.2-1,2.2-2.2,2.2
		h-9.6c-0.4,0-0.9-0.1-1.2-0.4v16.2c0,1.2-1,2.2-2.2,2.2h-9.6c-1.2,0-2.2-1-2.2-2.2v-21.6c0-1.2,1-2.2,2.2-2.2h9.6
		c0.4,0,0.9,0.1,1.2,0.4v-16.2c0-1.2,1-2.2,2.2-2.2h9.6c1.2,0,2.2,1,2.2,2.2V-323.6z"/>
	<path d="M-619.5-539.6c-7.1-5.6-5.8-26.4-5.8-30.2c0-2.2,1.1-4.7,2.1-6.5c0.9-1.6,1.4-3.5,1.4-5.3v-13.7c0-0.9-0.3-1.9-0.9-2.6
		l-1.1-1.3c-0.5-0.6-0.7-1.3-0.7-2l1.5-84.7c0,0,3.1-1,3.1-12.9c-6.5-27.9,3.5-48.1,0.8-51.5s-5.6-13.6-5.6-13.6h-6.5h-6.5
		c0,0-2.9,10.2-5.6,13.6s7.2,23.6,0.8,51.5c0,11.9,3.1,12.9,3.1,12.9l1.5,84.7c0,0.7-0.2,1.5-0.7,2l-1.1,1.3
		c-0.6,0.7-0.9,1.6-0.9,2.6v13.7c0,1.9,0.5,3.7,1.4,5.3c1,1.8,2.1,4.3,2.1,6.5c0,3.9,1.4,24.6-5.8,30.2c-4.1,3.2,0.4,5,4.9,5.9
		s9.2,0.9,13.7,0S-615.4-536.4-619.5-539.6z M-631.2-667.5c-1.9,0-3.5-1.6-3.5-3.5s1.6-3.5,3.5-3.5s3.5,1.6,3.5,3.5
		S-629.3-667.5-631.2-667.5z M-631.2-648.5c-1.9,0-3.5-1.6-3.5-3.5s1.6-3.5,3.5-3.5s3.5,1.6,3.5,3.5S-629.3-648.5-631.2-648.5z
		 M-631.2-629.5c-1.9,0-3.5-1.6-3.5-3.5s1.6-3.5,3.5-3.5s3.5,1.6,3.5,3.5S-629.3-629.5-631.2-629.5z M-631.2-610.5
		c-1.9,0-3.5-1.6-3.5-3.5s1.6-3.5,3.5-3.5s3.5,1.6,3.5,3.5S-629.3-610.5-631.2-610.5z M-633.2-585.5c-1.9,0-3.5-1.6-3.5-3.5
		s1.6-3.5,3.5-3.5s3.5,1.6,3.5,3.5S-631.3-585.5-633.2-585.5z M-625-733.7h-12.4v-4.7h12.4V-733.7z"/>
	<path class="st0" d="M525,240.3c-1.2,0.6-9,5.5-9,5.5c-0.3,0.2-0.4,0.4-0.4,0.7c0,0,0.8,1.3,0.2,2l-14.3,13.6l0,0
		c-2.3-0.2-1.4-2.8,0.3-4.5c1.3-1.3,1-4.1-1.7-2.8c-5,2.6-4.9,6.3-8.3,9.6c-1.9,1.9-7.3,3-9.1,4.8c-6.8,6.8,0.7,11.5,4.7,15.5
		s10.2,0.6,11.9-5.2c1.7-5.8,1.8-4.3,5.4-6.3s3.6-4.3,2.8-5.2c-0.9-0.9-3.5,2.2-5.1,0.5c-0.5-0.5-0.4-1.1-0.1-1.8l15.6-16.4
		c1-1.6,2.4-1.2,3.2-1.1c2.7-2.7,2.7-4.5,3.8-5.2c0.1-0.1,0.2-0.1,0.4-0.1c0.4,0.1,1,0.1,1.4,0c1.7-0.6,1.7-2.6,0.9-3.4
		C526.8,240,526.2,239.8,525,240.3z M489.3,280.2c0.1,0.1,0.1,0.4,0,0.5l-1.5,1.5c-0.1,0.1-0.4,0.1-0.5,0l-3-3
		c-0.1-0.1-0.1-0.4,0-0.5l1.5-1.5c0.1-0.1,0.4-0.1,0.5,0L489.3,280.2z M494.8,272c0.1,0.1,0.1,0.3,0,0.4l-0.8,0.8l-0.1,0.1l1.4,1.4
		c0.1,0.1,0.1,0.3,0,0.4l-0.8,0.8c-0.1,0.1-0.3,0.1-0.4,0l-1.9-1.9c-0.1-0.1-0.1-0.3,0-0.4l0.8-0.8l0.1-0.1l-1.4-1.4
		c-0.1-0.1-0.1-0.3,0-0.4l0.8-0.8c0.1-0.1,0.3-0.1,0.4,0L494.8,272z"/>
	<path class="st9" d="M983.4,80.2c-0.6,0.3-4.7,2.8-4.7,2.8c-0.1,0.1-0.2,0.2-0.2,0.4c0,0,0.4,0.7,0.1,1l-7.4,7.1l0,0
		c-1.2-0.1-0.7-1.5,0.1-2.3c0.7-0.7,0.5-2.2-0.9-1.4c-2.6,1.4-2.6,3.3-4.3,5c-1,1-3.8,1.5-4.8,2.5c-3.6,3.6,0.4,6,2.4,8
		c2.1,2.1,5.3,0.3,6.2-2.7s1-2.2,2.8-3.3c1.9-1,1.9-2.3,1.4-2.7c-0.4-0.4-1.8,1.1-2.7,0.3c-0.2-0.2-0.2-0.6-0.1-1l8.2-8.5
		c0.5-0.8,1.2-0.6,1.7-0.6c1.4-1.4,1.4-2.3,2-2.7c0.1,0,0.1,0,0.2,0c0.2,0,0.5,0.1,0.7,0c0.9-0.3,0.9-1.4,0.5-1.8
		C984.4,80,984,79.9,983.4,80.2z M964.8,100.9c0.1,0.1,0.1,0.2,0,0.3L964,102c-0.1,0.1-0.2,0.1-0.3,0l-1.5-1.5
		c-0.1-0.1-0.1-0.2,0-0.3l0.8-0.8c0.1-0.1,0.2-0.1,0.3,0L964.8,100.9z M967.7,96.6c0.1,0.1,0.1,0.1,0,0.2l-0.4,0.4c0,0,0,0-0.1,0
		l0.7,0.7c0.1,0.1,0.1,0.1,0,0.2l-0.4,0.4c-0.1,0.1-0.1,0.1-0.2,0l-1-1c-0.1-0.1-0.1-0.1,0-0.2l0.4-0.4c0,0,0,0,0.1,0l-0.7-0.7
		c-0.1-0.1-0.1-0.1,0-0.2l0.4-0.4c0.1-0.1,0.1-0.1,0.2,0L967.7,96.6z"/>
	<path class="st0" d="M565.5,287.1c-0.3-2.5,4-6.2,4.8-7c0.4-0.4,1.1-0.7,1.7-0.9c0.5-0.1,0.9-0.4,1.3-0.8l2.7-2.7
		c0.2-0.2,0.3-0.4,0.3-0.7v-0.5c0-0.2,0.1-0.4,0.3-0.5l16.7-16.2c0,0,0.8,0.4,3.1-1.9c4.1-6.7,10-8.7,10.1-9.9s1.6-3.7,1.6-3.7
		l-1.3-1.3l-1.3-1.3c0,0-2.5,1.4-3.7,1.6c-1.2,0.1-3.2,6-9.9,10.1c-2.3,2.3-1.9,3.1-1.9,3.1l-16.2,16.7c-0.1,0.1-0.3,0.2-0.5,0.3
		h-0.5c-0.3,0-0.5,0.1-0.7,0.3l-2.7,2.7c-0.4,0.4-0.6,0.8-0.8,1.3s-0.4,1.2-0.9,1.7c-0.8,0.8-4.5,5-7,4.8c-1.4-0.2-0.9,1-0.2,2.1
		s1.6,2,2.7,2.7C564.4,288,565.6,288.5,565.5,287.1z M588,260c-0.4-0.4-0.4-1,0-1.4s1-0.4,1.4,0s0.4,1,0,1.4S588.4,260.4,588,260z
		 M584.3,263.7c-0.4-0.4-0.4-1,0-1.4s1-0.4,1.4,0s0.4,1,0,1.4S584.7,264.1,584.3,263.7z M580.6,267.4c-0.4-0.4-0.4-1,0-1.4
		s1-0.4,1.4,0s0.4,1,0,1.4S581,267.8,580.6,267.4z M576.9,271.1c-0.4-0.4-0.4-1,0-1.4s1-0.4,1.4,0s0.4,1,0,1.4
		S577.3,271.4,576.9,271.1z M571.7,275.5c-0.4-0.4-0.4-1,0-1.4s1-0.4,1.4,0s0.4,1,0,1.4S572.1,275.9,571.7,275.5z M602.1,248.4
		l-2.4-2.4l0.9-0.9l2.4,2.4L602.1,248.4z"/>
	<path class="st9" d="M2.8,184.5c-0.2-1.3,2.1-3.2,2.5-3.6c0.2-0.2,0.6-0.4,0.9-0.4c0.3-0.1,0.5-0.2,0.7-0.4l1.4-1.4
		c0.1-0.1,0.2-0.2,0.2-0.4v-0.2c0-0.1,0.1-0.2,0.1-0.3l8.7-8.4c0,0,0.4,0.2,1.6-1c2.2-3.5,5.2-4.5,5.3-5.1c0.1-0.6,0.8-1.9,0.8-1.9
		l-0.7-0.7l-0.7-0.7c0,0-1.3,0.7-1.9,0.8s-1.7,3.1-5.1,5.3c-1.2,1.2-1,1.6-1,1.6l-8.4,8.7c-0.1,0.1-0.2,0.1-0.3,0.1H6.7
		c-0.1,0-0.3,0.1-0.4,0.2L5,178.1c-0.2,0.2-0.3,0.4-0.4,0.7s-0.2,0.6-0.4,0.9c-0.4,0.4-2.4,2.6-3.6,2.5c-0.7-0.1-0.5,0.5-0.1,1.1
		s0.8,1,1.4,1.4C2.3,185,2.9,185.3,2.8,184.5z M14.6,170.4c-0.2-0.2-0.2-0.5,0-0.7s0.5-0.2,0.7,0s0.2,0.5,0,0.7
		S14.8,170.6,14.6,170.4z M12.7,172.3c-0.2-0.2-0.2-0.5,0-0.7s0.5-0.2,0.7,0s0.2,0.5,0,0.7S12.9,172.5,12.7,172.3z M10.7,174.3
		c-0.2-0.2-0.2-0.5,0-0.7s0.5-0.2,0.7,0s0.2,0.5,0,0.7C11.3,174.5,10.9,174.5,10.7,174.3z M8.8,176.2c-0.2-0.2-0.2-0.5,0-0.7
		s0.5-0.2,0.7,0s0.2,0.5,0,0.7S9,176.4,8.8,176.2z M6.1,178.5c-0.2-0.2-0.2-0.5,0-0.7s0.5-0.2,0.7,0s0.2,0.5,0,0.7
		S6.3,178.7,6.1,178.5z M21.9,164.4l-1.3-1.3l0.5-0.5l1.3,1.3L21.9,164.4z"/>
	<g>
		<path class="st4" d="M170,160v2c2.1,0,4.1,0.9,5.6,2.5l1.5,1.5l1.5-1.5c1.5-1.6,3.5-2.5,5.6-2.5s4.1,0.9,5.6,2.5
			c3.2,3.4,3.2,8.8,0,12.2L177,190.1l-12.6-13.4c-3.2-3.4-3.2-8.8,0-12.2c1.5-1.6,3.5-2.5,5.6-2.5V160 M184,160c-2.5,0-5.1,1-7,3.1
			c-1.9-2.1-4.5-3.1-7-3.1s-5.1,1-7,3.1c-3.9,4.1-3.9,10.8,0,15l14.1,15l14.1-15c3.9-4.1,3.9-10.8,0-15C189.1,161,186.6,160,184,160
			L184,160z"/>
	</g>
	<g>
		<g>
			<path class="st0" d="M250,160v2c2.1,0,4.1,0.9,5.6,2.5l1.5,1.5l1.5-1.5c1.5-1.6,3.5-2.5,5.6-2.5s4.1,0.9,5.6,2.5
				c3.2,3.4,3.2,8.8,0,12.2L257,190.1l-12.6-13.4c-3.2-3.4-3.2-8.8,0-12.2c1.5-1.6,3.5-2.5,5.6-2.5V160 M264,160c-2.5,0-5.1,1-7,3.1
				c-1.9-2.1-4.5-3.1-7-3.1s-5.1,1-7,3.1c-3.9,4.1-3.9,10.8,0,15l14.1,15l14.1-15c3.9-4.1,3.9-10.8,0-15
				C269.1,161,266.6,160,264,160L264,160z"/>
		</g>
	</g>
</g>
</svg>
